<svg xmlns="http://www.w3.org/2000/svg" xmlns:xlink="http://www.w3.org/1999/xlink" width="1340" height="980"><g transform="translate(-20 -60)"><path d="M440 80h500v440H440z" stroke="#000" stroke-width="2" fill="#fff"/><path d="M440 118h500M440 330h500" stroke="#000" stroke-width="2" fill="none"/><use xlink:href="#a" transform="matrix(1,0,0,1,448,80) translate(214.4 22.6)"/><use xlink:href="#b" transform="matrix(1,0,0,1,452,125.6) translate(0 15.700000000000012)"/><use xlink:href="#c" transform="matrix(1,0,0,1,452,125.6) translate(10.95 15.700000000000012)"/><use xlink:href="#b" transform="matrix(1,0,0,1,452,125.6) translate(0 37.30000000000001)"/><use xlink:href="#d" transform="matrix(1,0,0,1,452,125.6) translate(10.95 37.30000000000001)"/><use xlink:href="#e" transform="matrix(1,0,0,1,452,125.6) translate(73.8 37.30000000000001)"/><use xlink:href="#b" transform="matrix(1,0,0,1,452,125.6) translate(0 58.90000000000001)"/><use xlink:href="#f" transform="matrix(1,0,0,1,452,125.6) translate(10.95 58.90000000000001)"/><use xlink:href="#b" transform="matrix(1,0,0,1,452,125.6) translate(0 80.50000000000003)"/><use xlink:href="#g" transform="matrix(1,0,0,1,452,125.6) translate(10.95 80.50000000000003)"/><use xlink:href="#h" transform="matrix(1,0,0,1,452,125.6) translate(50.849999999999994 80.50000000000003)"/><use xlink:href="#b" transform="matrix(1,0,0,1,452,125.6) translate(0 102.10000000000002)"/><use xlink:href="#i" transform="matrix(1,0,0,1,452,125.6) translate(10.95 102.10000000000002)"/><use xlink:href="#h" transform="matrix(1,0,0,1,452,125.6) translate(129.85 102.10000000000002)"/><use xlink:href="#b" transform="matrix(1,0,0,1,452,125.6) translate(0 123.70000000000002)"/><use xlink:href="#j" transform="matrix(1,0,0,1,452,125.6) translate(10.95 123.70000000000002)"/><use xlink:href="#k" transform="matrix(1,0,0,1,452,125.6) translate(100.75000000000001 123.70000000000002)"/><use xlink:href="#b" transform="matrix(1,0,0,1,452,125.6) translate(0 145.3)"/><use xlink:href="#l" transform="matrix(1,0,0,1,452,125.6) translate(10.95 145.3)"/><use xlink:href="#m" transform="matrix(1,0,0,1,452,125.6) translate(134.85 145.3)"/><use xlink:href="#b" transform="matrix(1,0,0,1,452,125.6) translate(0 166.9)"/><use xlink:href="#n" transform="matrix(1,0,0,1,452,125.6) translate(10.95 166.9)"/><use xlink:href="#o" transform="matrix(1,0,0,1,452,125.6) translate(103.75000000000001 166.9)"/><use xlink:href="#p" transform="matrix(1,0,0,1,452,125.6) translate(0 188.5)"/><g><use xlink:href="#q" transform="matrix(1,0,0,1,452,337.68657314629263) translate(0 15.500000000000009)"/><use xlink:href="#r" transform="matrix(1,0,0,1,452,337.68657314629263) translate(15.5 15.500000000000009)"/><use xlink:href="#q" transform="matrix(1,0,0,1,452,337.68657314629263) translate(0 37.10000000000001)"/><use xlink:href="#s" transform="matrix(1,0,0,1,452,337.68657314629263) translate(15.5 37.10000000000001)"/><use xlink:href="#t" transform="matrix(1,0,0,1,452,337.68657314629263) translate(140.15 37.10000000000001)"/><use xlink:href="#u" transform="matrix(1,0,0,1,452,337.68657314629263) translate(173.10000000000002 37.10000000000001)"/><use xlink:href="#v" transform="matrix(1,0,0,1,452,337.68657314629263) translate(308.75000000000006 37.10000000000001)"/><use xlink:href="#w" transform="matrix(1,0,0,1,452,337.68657314629263) translate(361.6000000000001 37.10000000000001)"/><use xlink:href="#x" transform="matrix(1,0,0,1,452,337.68657314629263) translate(421.6000000000001 37.10000000000001)"/><use xlink:href="#q" transform="matrix(1,0,0,1,452,337.68657314629263) translate(0 58.70000000000001)"/><use xlink:href="#y" transform="matrix(1,0,0,1,452,337.68657314629263) translate(15.5 58.70000000000001)"/><use xlink:href="#z" transform="matrix(1,0,0,1,452,337.68657314629263) translate(100.4 58.70000000000001)"/><use xlink:href="#q" transform="matrix(1,0,0,1,452,337.68657314629263) translate(0 80.30000000000003)"/><use xlink:href="#A" transform="matrix(1,0,0,1,452,337.68657314629263) translate(15.5 80.30000000000003)"/><use xlink:href="#B" transform="matrix(1,0,0,1,452,337.68657314629263) translate(171.14999999999998 80.30000000000003)"/><use xlink:href="#b" transform="matrix(1,0,0,1,452,337.68657314629263) translate(0 101.90000000000002)"/><use xlink:href="#C" transform="matrix(1,0,0,1,452,337.68657314629263) translate(10.95 101.90000000000002)"/><use xlink:href="#b" transform="matrix(1,0,0,1,452,337.68657314629263) translate(0 123.50000000000001)"/><use xlink:href="#D" transform="matrix(1,0,0,1,452,337.68657314629263) translate(10.95 123.50000000000001)"/><use xlink:href="#b" transform="matrix(1,0,0,1,452,337.68657314629263) translate(0 145.1)"/><use xlink:href="#E" transform="matrix(1,0,0,1,452,337.68657314629263) translate(10.95 145.1)"/><use xlink:href="#F" transform="matrix(1,0,0,1,452,337.68657314629263) translate(123.00000000000001 145.1)"/><use xlink:href="#G" transform="matrix(1,0,0,1,452,337.68657314629263) translate(182 145.1)"/><use xlink:href="#H" transform="matrix(1,0,0,1,452,337.68657314629263) translate(220.95 145.1)"/><use xlink:href="#b" transform="matrix(1,0,0,1,452,337.68657314629263) translate(0 166.70000000000002)"/><use xlink:href="#I" transform="matrix(1,0,0,1,452,337.68657314629263) translate(10.95 166.70000000000002)"/><use xlink:href="#F" transform="matrix(1,0,0,1,452,337.68657314629263) translate(144.7 166.70000000000002)"/><use xlink:href="#J" transform="matrix(1,0,0,1,452,337.68657314629263) translate(203.7 166.70000000000002)"/><use xlink:href="#K" transform="matrix(1,0,0,1,452,337.68657314629263) translate(242.64999999999998 166.70000000000002)"/></g><path d="M40 580h640v440H40z" stroke="#000" stroke-width="2" fill="#fff"/><path d="M40 618h640M40 830h640" stroke="#000" stroke-width="2" fill="none"/><g><use xlink:href="#L" transform="matrix(1,0,0,1,48,580) translate(269.4 22.6)"/></g><g><use xlink:href="#b" transform="matrix(1,0,0,1,52,625.6) translate(0 15.700000000000012)"/><use xlink:href="#M" transform="matrix(1,0,0,1,52,625.6) translate(10.95 15.700000000000012)"/><use xlink:href="#o" transform="matrix(1,0,0,1,52,625.6) translate(115.8 15.700000000000012)"/><use xlink:href="#b" transform="matrix(1,0,0,1,52,625.6) translate(0 37.30000000000001)"/><use xlink:href="#N" transform="matrix(1,0,0,1,52,625.6) translate(10.95 37.30000000000001)"/><use xlink:href="#o" transform="matrix(1,0,0,1,52,625.6) translate(130.85 37.30000000000001)"/><use xlink:href="#b" transform="matrix(1,0,0,1,52,625.6) translate(0 58.90000000000001)"/><use xlink:href="#O" transform="matrix(1,0,0,1,52,625.6) translate(10.95 58.90000000000001)"/><use xlink:href="#o" transform="matrix(1,0,0,1,52,625.6) translate(89.85000000000001 58.90000000000001)"/><use xlink:href="#b" transform="matrix(1,0,0,1,52,625.6) translate(0 80.50000000000003)"/><use xlink:href="#P" transform="matrix(1,0,0,1,52,625.6) translate(10.95 80.50000000000003)"/><use xlink:href="#o" transform="matrix(1,0,0,1,52,625.6) translate(104.9 80.50000000000003)"/><use xlink:href="#b" transform="matrix(1,0,0,1,52,625.6) translate(0 102.10000000000002)"/><use xlink:href="#Q" transform="matrix(1,0,0,1,52,625.6) translate(10.95 102.10000000000002)"/><use xlink:href="#o" transform="matrix(1,0,0,1,52,625.6) translate(118.85000000000001 102.10000000000002)"/><use xlink:href="#b" transform="matrix(1,0,0,1,52,625.6) translate(0 123.70000000000002)"/><use xlink:href="#R" transform="matrix(1,0,0,1,52,625.6) translate(10.95 123.70000000000002)"/><use xlink:href="#o" transform="matrix(1,0,0,1,52,625.6) translate(113.80000000000001 123.70000000000002)"/><use xlink:href="#b" transform="matrix(1,0,0,1,52,625.6) translate(0 145.3)"/><use xlink:href="#S" transform="matrix(1,0,0,1,52,625.6) translate(10.95 145.3)"/><use xlink:href="#m" transform="matrix(1,0,0,1,52,625.6) translate(147.7 145.3)"/><use xlink:href="#b" transform="matrix(1,0,0,1,52,625.6) translate(0 166.9)"/><use xlink:href="#T" transform="matrix(1,0,0,1,52,625.6) translate(10.95 166.9)"/><use xlink:href="#m" transform="matrix(1,0,0,1,52,625.6) translate(162.8 166.9)"/><use xlink:href="#b" transform="matrix(1,0,0,1,52,625.6) translate(0 188.5)"/><use xlink:href="#U" transform="matrix(1,0,0,1,52,625.6) translate(10.95 188.5)"/><use xlink:href="#V" transform="matrix(1,0,0,1,52,625.6) translate(53.900000000000006 188.5)"/></g><g><use xlink:href="#q" transform="matrix(1,0,0,1,52,837.6865731462926) translate(0 15.500000000000009)"/><use xlink:href="#W" transform="matrix(1,0,0,1,52,837.6865731462926) translate(15.5 15.500000000000009)"/><use xlink:href="#q" transform="matrix(1,0,0,1,52,837.6865731462926) translate(0 37.10000000000001)"/><use xlink:href="#s" transform="matrix(1,0,0,1,52,837.6865731462926) translate(15.5 37.10000000000001)"/><use xlink:href="#t" transform="matrix(1,0,0,1,52,837.6865731462926) translate(140.15 37.10000000000001)"/><use xlink:href="#X" transform="matrix(1,0,0,1,52,837.6865731462926) translate(173.10000000000002 37.10000000000001)"/><use xlink:href="#Y" transform="matrix(1,0,0,1,52,837.6865731462926) translate(197.05 37.10000000000001)"/><use xlink:href="#X" transform="matrix(1,0,0,1,52,837.6865731462926) translate(291.9 37.10000000000001)"/><use xlink:href="#Z" transform="matrix(1,0,0,1,52,837.6865731462926) translate(315.84999999999997 37.10000000000001)"/><use xlink:href="#q" transform="matrix(1,0,0,1,52,837.6865731462926) translate(0 58.70000000000001)"/><use xlink:href="#aa" transform="matrix(1,0,0,1,52,837.6865731462926) translate(15.5 58.70000000000001)"/><use xlink:href="#ab" transform="matrix(1,0,0,1,52,837.6865731462926) translate(175.3 58.70000000000001)"/><use xlink:href="#J" transform="matrix(1,0,0,1,52,837.6865731462926) translate(302.05 58.70000000000001)"/><use xlink:href="#ac" transform="matrix(1,0,0,1,52,837.6865731462926) translate(341 58.70000000000001)"/><use xlink:href="#q" transform="matrix(1,0,0,1,52,837.6865731462926) translate(0 80.30000000000003)"/><use xlink:href="#ad" transform="matrix(1,0,0,1,52,837.6865731462926) translate(15.5 80.30000000000003)"/><use xlink:href="#ae" transform="matrix(1,0,0,1,52,837.6865731462926) translate(169.3 80.30000000000003)"/><use xlink:href="#G" transform="matrix(1,0,0,1,52,837.6865731462926) translate(238.20000000000002 80.30000000000003)"/><use xlink:href="#af" transform="matrix(1,0,0,1,52,837.6865731462926) translate(277.15000000000003 80.30000000000003)"/><use xlink:href="#G" transform="matrix(1,0,0,1,52,837.6865731462926) translate(361.1 80.30000000000003)"/><use xlink:href="#ag" transform="matrix(1,0,0,1,52,837.6865731462926) translate(400.05 80.30000000000003)"/><use xlink:href="#G" transform="matrix(1,0,0,1,52,837.6865731462926) translate(487.95000000000005 80.30000000000003)"/><use xlink:href="#ah" transform="matrix(1,0,0,1,52,837.6865731462926) translate(526.9000000000001 80.30000000000003)"/><use xlink:href="#q" transform="matrix(1,0,0,1,52,837.6865731462926) translate(0 101.90000000000002)"/><use xlink:href="#ai" transform="matrix(1,0,0,1,52,837.6865731462926) translate(15.5 101.90000000000002)"/><use xlink:href="#aj" transform="matrix(1,0,0,1,52,837.6865731462926) translate(186.25 101.90000000000002)"/><use xlink:href="#G" transform="matrix(1,0,0,1,52,837.6865731462926) translate(266.15 101.90000000000002)"/><use xlink:href="#ak" transform="matrix(1,0,0,1,52,837.6865731462926) translate(305.09999999999997 101.90000000000002)"/><use xlink:href="#q" transform="matrix(1,0,0,1,52,837.6865731462926) translate(0 123.50000000000001)"/><use xlink:href="#al" transform="matrix(1,0,0,1,52,837.6865731462926) translate(15.5 123.50000000000001)"/><use xlink:href="#am" transform="matrix(1,0,0,1,52,837.6865731462926) translate(254.09999999999997 123.50000000000001)"/><use xlink:href="#X" transform="matrix(1,0,0,1,52,837.6865731462926) translate(370.9 123.50000000000001)"/><use xlink:href="#an" transform="matrix(1,0,0,1,52,837.6865731462926) translate(394.84999999999997 123.50000000000001)"/><use xlink:href="#q" transform="matrix(1,0,0,1,52,837.6865731462926) translate(0 145.1)"/><use xlink:href="#ao" transform="matrix(1,0,0,1,52,837.6865731462926) translate(15.5 145.1)"/><use xlink:href="#q" transform="matrix(1,0,0,1,52,837.6865731462926) translate(0 166.70000000000002)"/><use xlink:href="#ap" transform="matrix(1,0,0,1,52,837.6865731462926) translate(15.5 166.70000000000002)"/></g><path d="M700 580h640v420H700z" stroke="#000" stroke-width="2" fill="#fff"/><path d="M700 618h640M700 834h640" stroke="#000" stroke-width="2" fill="none"/><g><use xlink:href="#aq" transform="matrix(1,0,0,1,708,580) translate(255.925 22.6)"/></g><g><use xlink:href="#b" transform="matrix(1,0,0,1,712,625.6) translate(0 28.000000000000007)"/><use xlink:href="#ar" transform="matrix(1,0,0,1,712,625.6) translate(10.95 28.000000000000007)"/><use xlink:href="#as" transform="matrix(1,0,0,1,712,625.6) translate(58.849999999999994 28.000000000000007)"/><use xlink:href="#b" transform="matrix(1,0,0,1,712,625.6) translate(0 49.60000000000001)"/><use xlink:href="#at" transform="matrix(1,0,0,1,712,625.6) translate(10.95 49.60000000000001)"/><use xlink:href="#o" transform="matrix(1,0,0,1,712,625.6) translate(44.900000000000006 49.60000000000001)"/><use xlink:href="#b" transform="matrix(1,0,0,1,712,625.6) translate(0 71.20000000000002)"/><use xlink:href="#au" transform="matrix(1,0,0,1,712,625.6) translate(10.95 71.20000000000002)"/><use xlink:href="#b" transform="matrix(1,0,0,1,712,625.6) translate(0 92.80000000000003)"/><use xlink:href="#av" transform="matrix(1,0,0,1,712,625.6) translate(10.95 92.80000000000003)"/><use xlink:href="#o" transform="matrix(1,0,0,1,712,625.6) translate(94.8 92.80000000000003)"/><use xlink:href="#b" transform="matrix(1,0,0,1,712,625.6) translate(0 114.40000000000002)"/><use xlink:href="#aw" transform="matrix(1,0,0,1,712,625.6) translate(10.95 114.40000000000002)"/><use xlink:href="#ax" transform="matrix(1,0,0,1,712,625.6) translate(64.95 114.40000000000002)"/><use xlink:href="#b" transform="matrix(1,0,0,1,712,625.6) translate(0 136)"/><use xlink:href="#ay" transform="matrix(1,0,0,1,712,625.6) translate(10.95 136)"/><use xlink:href="#o" transform="matrix(1,0,0,1,712,625.6) translate(104.9 136)"/><use xlink:href="#b" transform="matrix(1,0,0,1,712,625.6) translate(0 157.6)"/><use xlink:href="#az" transform="matrix(1,0,0,1,712,625.6) translate(10.95 157.6)"/><use xlink:href="#h" transform="matrix(1,0,0,1,712,625.6) translate(40.95 157.6)"/><use xlink:href="#b" transform="matrix(1,0,0,1,712,625.6) translate(0 179.20000000000002)"/><use xlink:href="#aA" transform="matrix(1,0,0,1,712,625.6) translate(10.95 179.20000000000002)"/><use xlink:href="#aB" transform="matrix(1,0,0,1,712,625.6) translate(40.95 179.20000000000002)"/></g><g><use xlink:href="#q" transform="matrix(1,0,0,1,712,841.5004784688996) translate(0 25.1)"/><use xlink:href="#aC" transform="matrix(1,0,0,1,712,841.5004784688996) translate(15.5 25.1)"/><use xlink:href="#q" transform="matrix(1,0,0,1,712,841.5004784688996) translate(0 46.7)"/><use xlink:href="#aD" transform="matrix(1,0,0,1,712,841.5004784688996) translate(15.5 46.7)"/><use xlink:href="#aE" transform="matrix(1,0,0,1,712,841.5004784688996) translate(104.35 46.7)"/><use xlink:href="#X" transform="matrix(1,0,0,1,712,841.5004784688996) translate(142.25 46.7)"/><use xlink:href="#aF" transform="matrix(1,0,0,1,712,841.5004784688996) translate(166.2 46.7)"/><use xlink:href="#aG" transform="matrix(1,0,0,1,712,841.5004784688996) translate(190.14999999999998 46.7)"/><use xlink:href="#aH" transform="matrix(1,0,0,1,712,841.5004784688996) translate(325.95 46.7)"/><use xlink:href="#X" transform="matrix(1,0,0,1,712,841.5004784688996) translate(369.95 46.7)"/><use xlink:href="#aI" transform="matrix(1,0,0,1,712,841.5004784688996) translate(393.9 46.7)"/><use xlink:href="#G" transform="matrix(1,0,0,1,712,841.5004784688996) translate(477.84999999999997 46.7)"/><use xlink:href="#aJ" transform="matrix(1,0,0,1,712,841.5004784688996) translate(516.8 46.7)"/><use xlink:href="#aK" transform="matrix(1,0,0,1,712,841.5004784688996) translate(536.8 46.7)"/><use xlink:href="#aL" transform="matrix(1,0,0,1,712,841.5004784688996) translate(580.75 46.7)"/><use xlink:href="#q" transform="matrix(1,0,0,1,712,841.5004784688996) translate(0 68.30000000000001)"/><use xlink:href="#aM" transform="matrix(1,0,0,1,712,841.5004784688996) translate(15.5 68.30000000000001)"/><use xlink:href="#h" transform="matrix(1,0,0,1,712,841.5004784688996) translate(130.3 68.30000000000001)"/><use xlink:href="#q" transform="matrix(1,0,0,1,712,841.5004784688996) translate(0 89.90000000000002)"/><use xlink:href="#aN" transform="matrix(1,0,0,1,712,841.5004784688996) translate(15.5 89.90000000000002)"/><use xlink:href="#h" transform="matrix(1,0,0,1,712,841.5004784688996) translate(65.35 89.90000000000002)"/><use xlink:href="#q" transform="matrix(1,0,0,1,712,841.5004784688996) translate(0 111.50000000000001)"/><use xlink:href="#aO" transform="matrix(1,0,0,1,712,841.5004784688996) translate(15.5 111.50000000000001)"/><use xlink:href="#o" transform="matrix(1,0,0,1,712,841.5004784688996) translate(166.2 111.50000000000001)"/><use xlink:href="#q" transform="matrix(1,0,0,1,712,841.5004784688996) translate(0 133.1)"/><use xlink:href="#aP" transform="matrix(1,0,0,1,712,841.5004784688996) translate(15.5 133.1)"/><use xlink:href="#aQ" transform="matrix(1,0,0,1,712,841.5004784688996) translate(101.25 133.1)"/></g><path d="M360 580V300h80" stroke="#000" stroke-width="2" fill="none"/><g><use xlink:href="#aR" transform="matrix(1,0,0,1,407.5,274.4) translate(0 14.4)"/></g><g><use xlink:href="#aR" transform="matrix(1,0,0,1,325,553.2) translate(0 14.4)"/></g><path d="M1020 580V300h-80" stroke="#000" stroke-width="2" fill="none"/><g><use xlink:href="#aR" transform="matrix(1,0,0,1,945.5,304) translate(0 14.4)"/></g><g><use xlink:href="#aR" transform="matrix(1,0,0,1,985,553.2) translate(0 14.4)"/></g><defs><path d="M266 0h-40l-56-210L115 0H75L2-248h35L96-30l15-64 43-154h32l59 218 59-218h35" id="aS"/><path d="M141-36C126-15 110 5 73 4 37 3 15-17 15-53c-1-64 63-63 125-63 3-35-9-54-41-54-24 1-41 7-42 31l-33-3c5-37 33-52 76-52 45 0 72 20 72 64v82c-1 20 7 32 28 27v20c-31 9-61-2-59-35zM48-53c0 20 12 33 32 33 41-3 63-29 60-74-43 2-92-5-92 41" id="aT"/><path d="M24 0v-261h32V0H24" id="aU"/><path d="M143 0L79-87 56-68V0H24v-261h32v163l83-92h37l-77 82L181 0h-38" id="aV"/><path d="M100-194c63 0 86 42 84 106H49c0 40 14 67 53 68 26 1 43-12 49-29l28 8c-11 28-37 45-77 45C44 4 14-33 15-96c1-61 26-98 85-98zm52 81c6-60-76-77-97-28-3 7-6 17-6 28h103" id="aW"/><path d="M114-163C36-179 61-72 57 0H25l-1-190h30c1 12-1 29 2 39 6-27 23-49 58-41v29" id="aX"/><g id="a"><use transform="matrix(0.05,0,0,0.05,0,0)" xlink:href="#aS"/><use transform="matrix(0.05,0,0,0.05,16.3,0)" xlink:href="#aT"/><use transform="matrix(0.05,0,0,0.05,26.3,0)" xlink:href="#aU"/><use transform="matrix(0.05,0,0,0.05,30.25,0)" xlink:href="#aV"/><use transform="matrix(0.05,0,0,0.05,39.25,0)" xlink:href="#aW"/><use transform="matrix(0.05,0,0,0.05,49.25,0)" xlink:href="#aX"/></g><path d="M16-82v-28h88v28H16" id="aY"/><use transform="matrix(0.05,0,0,0.05,0,0)" xlink:href="#aY" id="b"/><path d="M96-169c-40 0-48 33-48 73s9 75 48 75c24 0 41-14 43-38l32 2c-6 37-31 61-74 61-59 0-76-41-82-99-10-93 101-131 147-64 4 7 5 14 7 22l-32 3c-4-21-16-35-41-35" id="aZ"/><path d="M100-194c62-1 85 37 85 99 1 63-27 99-86 99S16-35 15-95c0-66 28-99 85-99zM99-20c44 1 53-31 53-75 0-43-8-75-51-75s-53 32-53 75 10 74 51 75" id="ba"/><path d="M-5 72V49h209v23H-5" id="bb"/><path d="M33-154v-36h34v36H33zM33 0v-36h34V0H33" id="bc"/><path d="M24-231v-30h32v30H24zM24 0v-190h32V0H24" id="bd"/><path d="M117-194c89-4 53 116 60 194h-32v-121c0-31-8-49-39-48C34-167 62-67 57 0H25l-1-190h30c1 10-1 24 2 32 11-22 29-35 61-36" id="be"/><path d="M59-47c-2 24 18 29 38 22v24C64 9 27 4 27-40v-127H5v-23h24l9-43h21v43h35v23H59v120" id="bf"/><g id="c"><use transform="matrix(0.05,0,0,0.05,0,0)" xlink:href="#aZ"/><use transform="matrix(0.05,0,0,0.05,9,0)" xlink:href="#aU"/><use transform="matrix(0.05,0,0,0.05,12.949999999999998,0)" xlink:href="#ba"/><use transform="matrix(0.05,0,0,0.05,22.95,0)" xlink:href="#aZ"/><use transform="matrix(0.05,0,0,0.05,31.950000000000003,0)" xlink:href="#aV"/><use transform="matrix(0.05,0,0,0.05,40.95,0)" xlink:href="#bb"/><use transform="matrix(0.05,0,0,0.05,50.95,0)" xlink:href="#bc"/><use transform="matrix(0.05,0,0,0.05,55.95,0)" xlink:href="#bd"/><use transform="matrix(0.05,0,0,0.05,59.900000000000006,0)" xlink:href="#be"/><use transform="matrix(0.05,0,0,0.05,69.9,0)" xlink:href="#bf"/></g><path d="M135-143c-3-34-86-38-87 0 15 53 115 12 119 90S17 21 10-45l28-5c4 36 97 45 98 0-10-56-113-15-118-90-4-57 82-63 122-42 12 7 21 19 24 35" id="bg"/><g id="d"><use transform="matrix(0.05,0,0,0.05,0,0)" xlink:href="#bg"/><use transform="matrix(0.05,0,0,0.05,9,0)" xlink:href="#aW"/><use transform="matrix(0.05,0,0,0.05,19,0)" xlink:href="#aX"/><use transform="matrix(0.05,0,0,0.05,24.95,0)" xlink:href="#bd"/><use transform="matrix(0.05,0,0,0.05,28.899999999999995,0)" xlink:href="#aT"/><use transform="matrix(0.05,0,0,0.05,38.9,0)" xlink:href="#aU"/><use transform="matrix(0.05,0,0,0.05,42.85,0)" xlink:href="#bb"/><use transform="matrix(0.05,0,0,0.05,52.85,0)" xlink:href="#bc"/></g><path d="M197 0v-115H63V0H30v-248h33v105h134v-105h34V0h-34" id="bh"/><path d="M85-194c31 0 48 13 60 33l-1-100h32l1 261h-30c-2-10 0-23-3-31C134-8 116 4 85 4 32 4 16-35 15-94c0-66 23-100 70-100zm9 24c-40 0-46 34-46 75 0 40 6 74 45 74 42 0 51-32 51-76 0-42-9-74-50-73" id="bi"/><path d="M206 0h-36l-40-164L89 0H53L-1-190h32L70-26l43-164h34l41 164 42-164h31" id="bj"/><path d="M185-189c-5-48-123-54-124 2 14 75 158 14 163 119 3 78-121 87-175 55-17-10-28-26-33-46l33-7c5 56 141 63 141-1 0-78-155-14-162-118-5-82 145-84 179-34 5 7 8 16 11 25" id="bk"/><path d="M80-196l47-18 7 23-49 13 32 44-20 13-27-46-27 45-21-12 33-44-49-13 8-23 47 19-2-53h23" id="bl"/><g id="e"><use transform="matrix(0.05,0,0,0.05,0,0)" xlink:href="#bh"/><use transform="matrix(0.05,0,0,0.05,12.950000000000001,0)" xlink:href="#aT"/><use transform="matrix(0.05,0,0,0.05,22.950000000000003,0)" xlink:href="#aX"/><use transform="matrix(0.05,0,0,0.05,28.900000000000002,0)" xlink:href="#bi"/><use transform="matrix(0.05,0,0,0.05,38.900000000000006,0)" xlink:href="#bj"/><use transform="matrix(0.05,0,0,0.05,51.85,0)" xlink:href="#aT"/><use transform="matrix(0.05,0,0,0.05,61.85,0)" xlink:href="#aX"/><use transform="matrix(0.05,0,0,0.05,67.80000000000001,0)" xlink:href="#aW"/><use transform="matrix(0.05,0,0,0.05,77.80000000000001,0)" xlink:href="#bk"/><use transform="matrix(0.05,0,0,0.05,89.80000000000001,0)" xlink:href="#aW"/><use transform="matrix(0.05,0,0,0.05,99.80000000000001,0)" xlink:href="#aX"/><use transform="matrix(0.05,0,0,0.05,105.75,0)" xlink:href="#bd"/><use transform="matrix(0.05,0,0,0.05,109.7,0)" xlink:href="#aT"/><use transform="matrix(0.05,0,0,0.05,119.7,0)" xlink:href="#aU"/><use transform="matrix(0.05,0,0,0.05,123.65000000000003,0)" xlink:href="#bl"/></g><path d="M115-194c55 1 70 41 70 98S169 2 115 4C84 4 66-9 55-30l1 105H24l-1-265h31l2 30c10-21 28-34 59-34zm-8 174c40 0 45-34 45-75s-6-73-45-74c-42 0-51 32-51 76 0 43 10 73 51 73" id="bm"/><path d="M101-234c-31-9-42 10-38 44h38v23H63V0H32v-167H5v-23h27c-7-52 17-82 69-68v24" id="bn"/><g id="f"><use transform="matrix(0.05,0,0,0.05,0,0)" xlink:href="#bg"/><use transform="matrix(0.05,0,0,0.05,9,0)" xlink:href="#bm"/><use transform="matrix(0.05,0,0,0.05,19,0)" xlink:href="#aW"/><use transform="matrix(0.05,0,0,0.05,29,0)" xlink:href="#aW"/><use transform="matrix(0.05,0,0,0.05,39,0)" xlink:href="#bi"/><use transform="matrix(0.05,0,0,0.05,49,0)" xlink:href="#bb"/><use transform="matrix(0.05,0,0,0.05,59,0)" xlink:href="#bc"/><use transform="matrix(0.05,0,0,0.05,64,0)" xlink:href="#bn"/><use transform="matrix(0.05,0,0,0.05,69,0)" xlink:href="#aU"/><use transform="matrix(0.05,0,0,0.05,72.95,0)" xlink:href="#ba"/><use transform="matrix(0.05,0,0,0.05,82.95,0)" xlink:href="#aT"/><use transform="matrix(0.05,0,0,0.05,92.95,0)" xlink:href="#bf"/></g><g id="g"><use transform="matrix(0.05,0,0,0.05,0,0)" xlink:href="#bi"/><use transform="matrix(0.05,0,0,0.05,10,0)" xlink:href="#bd"/><use transform="matrix(0.05,0,0,0.05,13.949999999999998,0)" xlink:href="#aX"/><use transform="matrix(0.05,0,0,0.05,19.9,0)" xlink:href="#bb"/><use transform="matrix(0.05,0,0,0.05,29.899999999999995,0)" xlink:href="#bc"/></g><g id="h"><use transform="matrix(0.05,0,0,0.05,0,0)" xlink:href="#bn"/><use transform="matrix(0.05,0,0,0.05,5,0)" xlink:href="#aU"/><use transform="matrix(0.05,0,0,0.05,8.95,0)" xlink:href="#ba"/><use transform="matrix(0.05,0,0,0.05,18.95,0)" xlink:href="#aT"/><use transform="matrix(0.05,0,0,0.05,28.950000000000003,0)" xlink:href="#bf"/></g><path d="M127-220V0H93v-220H8v-28h204v28h-85" id="bo"/><path d="M177-190C167-65 218 103 67 71c-23-6-38-20-44-43l32-5c15 47 100 32 89-28v-30C133-14 115 1 83 1 29 1 15-40 15-95c0-56 16-97 71-98 29-1 48 16 59 35 1-10 0-23 2-32h30zM94-22c36 0 50-32 50-73 0-42-14-75-50-75-39 0-46 34-46 75s6 73 46 73" id="bp"/><g id="i"><use transform="matrix(0.05,0,0,0.05,0,0)" xlink:href="#bg"/><use transform="matrix(0.05,0,0,0.05,9,0)" xlink:href="#bm"/><use transform="matrix(0.05,0,0,0.05,19,0)" xlink:href="#aW"/><use transform="matrix(0.05,0,0,0.05,29,0)" xlink:href="#aW"/><use transform="matrix(0.05,0,0,0.05,39,0)" xlink:href="#bi"/><use transform="matrix(0.05,0,0,0.05,49,0)" xlink:href="#bo"/><use transform="matrix(0.05,0,0,0.05,57.95,0)" xlink:href="#aT"/><use transform="matrix(0.05,0,0,0.05,67.95,0)" xlink:href="#aX"/><use transform="matrix(0.05,0,0,0.05,73.9,0)" xlink:href="#bp"/><use transform="matrix(0.05,0,0,0.05,83.9,0)" xlink:href="#aW"/><use transform="matrix(0.05,0,0,0.05,93.9,0)" xlink:href="#bf"/><use transform="matrix(0.05,0,0,0.05,98.9,0)" xlink:href="#bb"/><use transform="matrix(0.05,0,0,0.05,108.9,0)" xlink:href="#bc"/></g><g id="j"><use transform="matrix(0.05,0,0,0.05,0,0)" xlink:href="#bi"/><use transform="matrix(0.05,0,0,0.05,10,0)" xlink:href="#bd"/><use transform="matrix(0.05,0,0,0.05,13.949999999999998,0)" xlink:href="#aX"/><use transform="matrix(0.05,0,0,0.05,19.9,0)" xlink:href="#bo"/><use transform="matrix(0.05,0,0,0.05,28.85,0)" xlink:href="#aT"/><use transform="matrix(0.05,0,0,0.05,38.85,0)" xlink:href="#aX"/><use transform="matrix(0.05,0,0,0.05,44.800000000000004,0)" xlink:href="#bp"/><use transform="matrix(0.05,0,0,0.05,54.800000000000004,0)" xlink:href="#aW"/><use transform="matrix(0.05,0,0,0.05,64.80000000000001,0)" xlink:href="#bf"/><use transform="matrix(0.05,0,0,0.05,69.80000000000001,0)" xlink:href="#bb"/><use transform="matrix(0.05,0,0,0.05,79.80000000000001,0)" xlink:href="#bc"/></g><g id="k"><use transform="matrix(0.05,0,0,0.05,0,0)" xlink:href="#bn"/><use transform="matrix(0.05,0,0,0.05,5,0)" xlink:href="#aU"/><use transform="matrix(0.05,0,0,0.05,8.95,0)" xlink:href="#ba"/><use transform="matrix(0.05,0,0,0.05,18.95,0)" xlink:href="#aT"/><use transform="matrix(0.05,0,0,0.05,28.950000000000003,0)" xlink:href="#bf"/></g><path d="M205 0l-28-72H64L36 0H1l101-248h38L239 0h-34zm-38-99l-47-123c-12 45-31 82-46 123h93" id="bq"/><path d="M84 4C-5 8 30-112 23-190h32v120c0 31 7 50 39 49 72-2 45-101 50-169h31l1 190h-30c-1-10 1-25-2-33-11 22-28 36-60 37" id="br"/><path d="M210-169c-67 3-38 105-44 169h-31v-121c0-29-5-50-35-48C34-165 62-65 56 0H25l-1-190h30c1 10-1 24 2 32 10-44 99-50 107 0 11-21 27-35 58-36 85-2 47 119 55 194h-31v-121c0-29-5-49-35-48" id="bs"/><g id="l"><use transform="matrix(0.05,0,0,0.05,0,0)" xlink:href="#bd"/><use transform="matrix(0.05,0,0,0.05,3.95,0)" xlink:href="#bg"/><use transform="matrix(0.05,0,0,0.05,12.949999999999998,0)" xlink:href="#bq"/><use transform="matrix(0.05,0,0,0.05,24.95,0)" xlink:href="#br"/><use transform="matrix(0.05,0,0,0.05,34.95,0)" xlink:href="#bf"/><use transform="matrix(0.05,0,0,0.05,39.95,0)" xlink:href="#ba"/><use transform="matrix(0.05,0,0,0.05,49.95,0)" xlink:href="#be"/><use transform="matrix(0.05,0,0,0.05,59.95,0)" xlink:href="#ba"/><use transform="matrix(0.05,0,0,0.05,69.95,0)" xlink:href="#bs"/><use transform="matrix(0.05,0,0,0.05,84.9,0)" xlink:href="#ba"/><use transform="matrix(0.05,0,0,0.05,94.9,0)" xlink:href="#br"/><use transform="matrix(0.05,0,0,0.05,104.9,0)" xlink:href="#bg"/><use transform="matrix(0.05,0,0,0.05,113.9,0)" xlink:href="#bc"/></g><path d="M115-194c53 0 69 39 70 98 0 66-23 100-70 100C84 3 66-7 56-30L54 0H23l1-261h32v101c10-23 28-34 59-34zm-8 174c40 0 45-34 45-75 0-40-5-75-45-74-42 0-51 32-51 76 0 43 10 73 51 73" id="bt"/><g id="m"><use transform="matrix(0.05,0,0,0.05,0,0)" xlink:href="#bt"/><use transform="matrix(0.05,0,0,0.05,10,0)" xlink:href="#ba"/><use transform="matrix(0.05,0,0,0.05,20,0)" xlink:href="#ba"/><use transform="matrix(0.05,0,0,0.05,30,0)" xlink:href="#aU"/></g><path d="M9 0v-24l116-142H16v-24h144v24L44-24h123V0H9" id="bu"/><path d="M30-248c118-7 216 8 213 122C240-48 200 0 122 0H30v-248zM63-27c89 8 146-16 146-99s-60-101-146-95v194" id="bv"/><g id="n"><use transform="matrix(0.05,0,0,0.05,0,0)" xlink:href="#bn"/><use transform="matrix(0.05,0,0,0.05,5,0)" xlink:href="#aX"/><use transform="matrix(0.05,0,0,0.05,10.95,0)" xlink:href="#aW"/><use transform="matrix(0.05,0,0,0.05,20.95,0)" xlink:href="#aW"/><use transform="matrix(0.05,0,0,0.05,30.950000000000003,0)" xlink:href="#bu"/><use transform="matrix(0.05,0,0,0.05,39.95,0)" xlink:href="#aW"/><use transform="matrix(0.05,0,0,0.05,49.95,0)" xlink:href="#bv"/><use transform="matrix(0.05,0,0,0.05,62.900000000000006,0)" xlink:href="#bd"/><use transform="matrix(0.05,0,0,0.05,66.85000000000001,0)" xlink:href="#aX"/><use transform="matrix(0.05,0,0,0.05,72.80000000000001,0)" xlink:href="#bb"/><use transform="matrix(0.05,0,0,0.05,82.80000000000001,0)" xlink:href="#bc"/></g><g id="o"><use transform="matrix(0.05,0,0,0.05,0,0)" xlink:href="#bd"/><use transform="matrix(0.05,0,0,0.05,3.95,0)" xlink:href="#be"/><use transform="matrix(0.05,0,0,0.05,13.949999999999998,0)" xlink:href="#bf"/></g><path d="M118-107v75H92v-75H18v-26h74v-75h26v75h74v26h-74" id="bw"/><use transform="matrix(0.05,0,0,0.05,0,0)" xlink:href="#bw" id="q"/><path d="M87 75C49 33 22-17 22-94c0-76 28-126 65-167h31c-38 41-64 92-64 168S80 34 118 75H87" id="bx"/><path d="M33-261c38 41 65 92 65 168S71 34 33 75H2C39 34 66-17 66-93S39-220 2-261h31" id="by"/><g id="r"><use transform="matrix(0.05,0,0,0.05,0,0)" xlink:href="#aS"/><use transform="matrix(0.05,0,0,0.05,16.3,0)" xlink:href="#aT"/><use transform="matrix(0.05,0,0,0.05,26.3,0)" xlink:href="#aU"/><use transform="matrix(0.05,0,0,0.05,30.25,0)" xlink:href="#aV"/><use transform="matrix(0.05,0,0,0.05,39.25,0)" xlink:href="#aW"/><use transform="matrix(0.05,0,0,0.05,49.25,0)" xlink:href="#aX"/><use transform="matrix(0.05,0,0,0.05,55.2,0)" xlink:href="#bx"/><use transform="matrix(0.05,0,0,0.05,61.150000000000006,0)" xlink:href="#by"/></g><path d="M179-190L93 31C79 59 56 82 12 73V49c39 6 53-20 64-50L1-190h34L92-34l54-156h33" id="bz"/><path d="M141 0L90-78 38 0H4l68-98-65-92h35l48 74 47-74h35l-64 92 68 98h-35" id="bA"/><g id="s"><use transform="matrix(0.05,0,0,0.05,0,0)" xlink:href="#bd"/><use transform="matrix(0.05,0,0,0.05,3.95,0)" xlink:href="#be"/><use transform="matrix(0.05,0,0,0.05,13.949999999999998,0)" xlink:href="#bd"/><use transform="matrix(0.05,0,0,0.05,17.9,0)" xlink:href="#bf"/><use transform="matrix(0.05,0,0,0.05,22.9,0)" xlink:href="#bx"/><use transform="matrix(0.05,0,0,0.05,28.849999999999994,0)" xlink:href="#bv"/><use transform="matrix(0.05,0,0,0.05,41.8,0)" xlink:href="#bz"/><use transform="matrix(0.05,0,0,0.05,50.8,0)" xlink:href="#be"/><use transform="matrix(0.05,0,0,0.05,60.79999999999999,0)" xlink:href="#aT"/><use transform="matrix(0.05,0,0,0.05,70.8,0)" xlink:href="#bs"/><use transform="matrix(0.05,0,0,0.05,85.75,0)" xlink:href="#bd"/><use transform="matrix(0.05,0,0,0.05,89.7,0)" xlink:href="#bA"/><use transform="matrix(0.05,0,0,0.05,98.7,0)" xlink:href="#aW"/><use transform="matrix(0.05,0,0,0.05,108.7,0)" xlink:href="#aU"/><use transform="matrix(0.05,0,0,0.05,112.65,0)" xlink:href="#bl"/></g><path d="M68-38c1 34 0 65-14 84H32c9-13 17-26 17-46H33v-38h35" id="bB"/><g id="t"><use transform="matrix(0.05,0,0,0.05,0,0)" xlink:href="#bi"/><use transform="matrix(0.05,0,0,0.05,10,0)" xlink:href="#bA"/><use transform="matrix(0.05,0,0,0.05,19,0)" xlink:href="#aU"/><use transform="matrix(0.05,0,0,0.05,22.95,0)" xlink:href="#bB"/></g><g id="u"><use transform="matrix(0.05,0,0,0.05,0,0)" xlink:href="#bh"/><use transform="matrix(0.05,0,0,0.05,12.950000000000001,0)" xlink:href="#aT"/><use transform="matrix(0.05,0,0,0.05,22.950000000000003,0)" xlink:href="#aX"/><use transform="matrix(0.05,0,0,0.05,28.900000000000002,0)" xlink:href="#bi"/><use transform="matrix(0.05,0,0,0.05,38.900000000000006,0)" xlink:href="#bj"/><use transform="matrix(0.05,0,0,0.05,51.85,0)" xlink:href="#aT"/><use transform="matrix(0.05,0,0,0.05,61.85,0)" xlink:href="#aX"/><use transform="matrix(0.05,0,0,0.05,67.80000000000001,0)" xlink:href="#aW"/><use transform="matrix(0.05,0,0,0.05,77.80000000000001,0)" xlink:href="#bk"/><use transform="matrix(0.05,0,0,0.05,89.80000000000001,0)" xlink:href="#aW"/><use transform="matrix(0.05,0,0,0.05,99.80000000000001,0)" xlink:href="#aX"/><use transform="matrix(0.05,0,0,0.05,105.75,0)" xlink:href="#bd"/><use transform="matrix(0.05,0,0,0.05,109.7,0)" xlink:href="#aT"/><use transform="matrix(0.05,0,0,0.05,119.7,0)" xlink:href="#aU"/><use transform="matrix(0.05,0,0,0.05,123.65000000000003,0)" xlink:href="#bl"/></g><g id="v"><use transform="matrix(0.05,0,0,0.05,0,0)" xlink:href="#bg"/><use transform="matrix(0.05,0,0,0.05,9,0)" xlink:href="#aW"/><use transform="matrix(0.05,0,0,0.05,19,0)" xlink:href="#aX"/><use transform="matrix(0.05,0,0,0.05,24.95,0)" xlink:href="#bd"/><use transform="matrix(0.05,0,0,0.05,28.899999999999995,0)" xlink:href="#aT"/><use transform="matrix(0.05,0,0,0.05,38.9,0)" xlink:href="#aU"/><use transform="matrix(0.05,0,0,0.05,42.85,0)" xlink:href="#bB"/></g><path d="M140-251c81 0 123 46 123 126C263-46 219 4 140 4 59 4 17-45 17-125s42-126 123-126zm0 227c63 0 89-41 89-101s-29-99-89-99c-61 0-89 39-89 99S79-25 140-24" id="bC"/><path d="M30 0v-248h33v221h125V0H30" id="bD"/><g id="w"><use transform="matrix(0.05,0,0,0.05,0,0)" xlink:href="#bC"/><use transform="matrix(0.05,0,0,0.05,14,0)" xlink:href="#bD"/><use transform="matrix(0.05,0,0,0.05,24,0)" xlink:href="#bD"/><use transform="matrix(0.05,0,0,0.05,34,0)" xlink:href="#bC"/><use transform="matrix(0.05,0,0,0.05,48,0)" xlink:href="#bl"/></g><g id="x"><use transform="matrix(0.05,0,0,0.05,0,0)" xlink:href="#ba"/><use transform="matrix(0.05,0,0,0.05,10,0)" xlink:href="#aU"/><use transform="matrix(0.05,0,0,0.05,13.949999999999998,0)" xlink:href="#aU"/><use transform="matrix(0.05,0,0,0.05,17.9,0)" xlink:href="#ba"/><use transform="matrix(0.05,0,0,0.05,27.899999999999995,0)" xlink:href="#by"/></g><g id="y"><use transform="matrix(0.05,0,0,0.05,0,0)" xlink:href="#br"/><use transform="matrix(0.05,0,0,0.05,10,0)" xlink:href="#bm"/><use transform="matrix(0.05,0,0,0.05,20,0)" xlink:href="#bi"/><use transform="matrix(0.05,0,0,0.05,30,0)" xlink:href="#aT"/><use transform="matrix(0.05,0,0,0.05,40,0)" xlink:href="#bf"/><use transform="matrix(0.05,0,0,0.05,45,0)" xlink:href="#aW"/><use transform="matrix(0.05,0,0,0.05,55,0)" xlink:href="#bx"/><use transform="matrix(0.05,0,0,0.05,60.95,0)" xlink:href="#bd"/><use transform="matrix(0.05,0,0,0.05,64.9,0)" xlink:href="#be"/><use transform="matrix(0.05,0,0,0.05,74.9,0)" xlink:href="#bf"/></g><g id="z"><use transform="matrix(0.05,0,0,0.05,0,0)" xlink:href="#bi"/><use transform="matrix(0.05,0,0,0.05,10,0)" xlink:href="#bf"/><use transform="matrix(0.05,0,0,0.05,15,0)" xlink:href="#by"/></g><path d="M33 0v-248h34V0H33" id="bE"/><path d="M106-169C34-169 62-67 57 0H25v-261h32l-1 103c12-21 28-36 61-36 89 0 53 116 60 194h-32v-121c2-32-8-49-39-48" id="bF"/><g id="A"><use transform="matrix(0.05,0,0,0.05,0,0)" xlink:href="#bg"/><use transform="matrix(0.05,0,0,0.05,9,0)" xlink:href="#aW"/><use transform="matrix(0.05,0,0,0.05,19,0)" xlink:href="#aX"/><use transform="matrix(0.05,0,0,0.05,24.95,0)" xlink:href="#bd"/><use transform="matrix(0.05,0,0,0.05,28.899999999999995,0)" xlink:href="#aT"/><use transform="matrix(0.05,0,0,0.05,38.9,0)" xlink:href="#aU"/><use transform="matrix(0.05,0,0,0.05,42.85,0)" xlink:href="#bE"/><use transform="matrix(0.05,0,0,0.05,47.85,0)" xlink:href="#be"/><use transform="matrix(0.05,0,0,0.05,57.85,0)" xlink:href="#bf"/><use transform="matrix(0.05,0,0,0.05,62.85,0)" xlink:href="#aW"/><use transform="matrix(0.05,0,0,0.05,72.85,0)" xlink:href="#aX"/><use transform="matrix(0.05,0,0,0.05,78.8,0)" xlink:href="#aX"/><use transform="matrix(0.05,0,0,0.05,84.75,0)" xlink:href="#br"/><use transform="matrix(0.05,0,0,0.05,94.75,0)" xlink:href="#bm"/><use transform="matrix(0.05,0,0,0.05,104.75,0)" xlink:href="#bf"/><use transform="matrix(0.05,0,0,0.05,109.75,0)" xlink:href="#bx"/><use transform="matrix(0.05,0,0,0.05,115.7,0)" xlink:href="#aZ"/><use transform="matrix(0.05,0,0,0.05,124.7,0)" xlink:href="#bF"/><use transform="matrix(0.05,0,0,0.05,134.7,0)" xlink:href="#aT"/><use transform="matrix(0.05,0,0,0.05,144.7,0)" xlink:href="#aX"/></g><g id="B"><use transform="matrix(0.05,0,0,0.05,0,0)" xlink:href="#bt"/><use transform="matrix(0.05,0,0,0.05,10,0)" xlink:href="#br"/><use transform="matrix(0.05,0,0,0.05,20,0)" xlink:href="#bn"/><use transform="matrix(0.05,0,0,0.05,24.65,0)" xlink:href="#bn"/><use transform="matrix(0.05,0,0,0.05,29.649999999999995,0)" xlink:href="#aW"/><use transform="matrix(0.05,0,0,0.05,39.65,0)" xlink:href="#aX"/><use transform="matrix(0.05,0,0,0.05,45.6,0)" xlink:href="#by"/></g><g id="C"><use transform="matrix(0.05,0,0,0.05,0,0)" xlink:href="#bn"/><use transform="matrix(0.05,0,0,0.05,5,0)" xlink:href="#ba"/><use transform="matrix(0.05,0,0,0.05,15,0)" xlink:href="#aU"/><use transform="matrix(0.05,0,0,0.05,18.95,0)" xlink:href="#aU"/><use transform="matrix(0.05,0,0,0.05,22.9,0)" xlink:href="#ba"/><use transform="matrix(0.05,0,0,0.05,32.9,0)" xlink:href="#bj"/><use transform="matrix(0.05,0,0,0.05,45.85,0)" xlink:href="#bo"/><use transform="matrix(0.05,0,0,0.05,56.800000000000004,0)" xlink:href="#bF"/><use transform="matrix(0.05,0,0,0.05,66.80000000000001,0)" xlink:href="#aW"/><use transform="matrix(0.05,0,0,0.05,76.80000000000001,0)" xlink:href="#bD"/><use transform="matrix(0.05,0,0,0.05,86.80000000000001,0)" xlink:href="#bd"/><use transform="matrix(0.05,0,0,0.05,90.75000000000001,0)" xlink:href="#bp"/><use transform="matrix(0.05,0,0,0.05,100.75000000000001,0)" xlink:href="#bF"/><use transform="matrix(0.05,0,0,0.05,110.75,0)" xlink:href="#bf"/><use transform="matrix(0.05,0,0,0.05,115.75,0)" xlink:href="#bx"/><use transform="matrix(0.05,0,0,0.05,121.7,0)" xlink:href="#by"/></g><path d="M212-179c-10-28-35-45-73-45-59 0-87 40-87 99 0 60 29 101 89 101 43 0 62-24 78-52l27 14C228-24 195 4 139 4 59 4 22-46 18-125c-6-104 99-153 187-111 19 9 31 26 39 46" id="bG"/><g id="D"><use transform="matrix(0.05,0,0,0.05,0,0)" xlink:href="#be"/><use transform="matrix(0.05,0,0,0.05,10,0)" xlink:href="#be"/><use transform="matrix(0.05,0,0,0.05,20,0)" xlink:href="#bG"/><use transform="matrix(0.05,0,0,0.05,32.95,0)" xlink:href="#ba"/><use transform="matrix(0.05,0,0,0.05,42.95,0)" xlink:href="#bs"/><use transform="matrix(0.05,0,0,0.05,57.900000000000006,0)" xlink:href="#bs"/><use transform="matrix(0.05,0,0,0.05,72.85000000000001,0)" xlink:href="#aT"/><use transform="matrix(0.05,0,0,0.05,82.85000000000001,0)" xlink:href="#be"/><use transform="matrix(0.05,0,0,0.05,92.85000000000001,0)" xlink:href="#bi"/><use transform="matrix(0.05,0,0,0.05,102.85000000000001,0)" xlink:href="#aW"/><use transform="matrix(0.05,0,0,0.05,112.85000000000001,0)" xlink:href="#aX"/><use transform="matrix(0.05,0,0,0.05,118.80000000000001,0)" xlink:href="#bx"/><use transform="matrix(0.05,0,0,0.05,124.75,0)" xlink:href="#by"/></g><g id="E"><use transform="matrix(0.05,0,0,0.05,0,0)" xlink:href="#bj"/><use transform="matrix(0.05,0,0,0.05,12.950000000000001,0)" xlink:href="#aT"/><use transform="matrix(0.05,0,0,0.05,22.950000000000003,0)" xlink:href="#aU"/><use transform="matrix(0.05,0,0,0.05,26.900000000000002,0)" xlink:href="#aV"/><use transform="matrix(0.05,0,0,0.05,35.900000000000006,0)" xlink:href="#bo"/><use transform="matrix(0.05,0,0,0.05,46.20000000000001,0)" xlink:href="#aX"/><use transform="matrix(0.05,0,0,0.05,52.15000000000001,0)" xlink:href="#ba"/><use transform="matrix(0.05,0,0,0.05,62.15000000000001,0)" xlink:href="#bf"/><use transform="matrix(0.05,0,0,0.05,67.15,0)" xlink:href="#bx"/><use transform="matrix(0.05,0,0,0.05,73.10000000000001,0)" xlink:href="#bn"/><use transform="matrix(0.05,0,0,0.05,78.10000000000001,0)" xlink:href="#aU"/><use transform="matrix(0.05,0,0,0.05,82.05000000000001,0)" xlink:href="#ba"/><use transform="matrix(0.05,0,0,0.05,92.05000000000001,0)" xlink:href="#aT"/><use transform="matrix(0.05,0,0,0.05,102.05000000000001,0)" xlink:href="#bf"/></g><g id="F"><use transform="matrix(0.05,0,0,0.05,0,0)" xlink:href="#bg"/><use transform="matrix(0.05,0,0,0.05,9,0)" xlink:href="#bm"/><use transform="matrix(0.05,0,0,0.05,19,0)" xlink:href="#aW"/><use transform="matrix(0.05,0,0,0.05,29,0)" xlink:href="#aW"/><use transform="matrix(0.05,0,0,0.05,39,0)" xlink:href="#bi"/><use transform="matrix(0.05,0,0,0.05,49,0)" xlink:href="#bB"/></g><g id="G"><use transform="matrix(0.05,0,0,0.05,0,0)" xlink:href="#bn"/><use transform="matrix(0.05,0,0,0.05,5,0)" xlink:href="#aU"/><use transform="matrix(0.05,0,0,0.05,8.95,0)" xlink:href="#ba"/><use transform="matrix(0.05,0,0,0.05,18.95,0)" xlink:href="#aT"/><use transform="matrix(0.05,0,0,0.05,28.950000000000003,0)" xlink:href="#bf"/></g><g id="H"><use transform="matrix(0.05,0,0,0.05,0,0)" xlink:href="#bi"/><use transform="matrix(0.05,0,0,0.05,10,0)" xlink:href="#bd"/><use transform="matrix(0.05,0,0,0.05,13.949999999999998,0)" xlink:href="#aX"/><use transform="matrix(0.05,0,0,0.05,19.9,0)" xlink:href="#aW"/><use transform="matrix(0.05,0,0,0.05,29.899999999999995,0)" xlink:href="#aZ"/><use transform="matrix(0.05,0,0,0.05,38.9,0)" xlink:href="#bf"/><use transform="matrix(0.05,0,0,0.05,43.9,0)" xlink:href="#bd"/><use transform="matrix(0.05,0,0,0.05,47.85,0)" xlink:href="#ba"/><use transform="matrix(0.05,0,0,0.05,57.85,0)" xlink:href="#be"/><use transform="matrix(0.05,0,0,0.05,67.85,0)" xlink:href="#by"/></g><path d="M233-177c-1 41-23 64-60 70L243 0h-38l-65-103H63V0H30v-248c88 3 205-21 203 71zM63-129c60-2 137 13 137-47 0-61-80-42-137-45v92" id="bH"/><g id="I"><use transform="matrix(0.05,0,0,0.05,0,0)" xlink:href="#bj"/><use transform="matrix(0.05,0,0,0.05,12.950000000000001,0)" xlink:href="#aT"/><use transform="matrix(0.05,0,0,0.05,22.950000000000003,0)" xlink:href="#aU"/><use transform="matrix(0.05,0,0,0.05,26.900000000000002,0)" xlink:href="#aV"/><use transform="matrix(0.05,0,0,0.05,35.900000000000006,0)" xlink:href="#bH"/><use transform="matrix(0.05,0,0,0.05,48.85000000000001,0)" xlink:href="#ba"/><use transform="matrix(0.05,0,0,0.05,58.85,0)" xlink:href="#bf"/><use transform="matrix(0.05,0,0,0.05,63.85,0)" xlink:href="#aT"/><use transform="matrix(0.05,0,0,0.05,73.85000000000001,0)" xlink:href="#bf"/><use transform="matrix(0.05,0,0,0.05,78.85000000000001,0)" xlink:href="#aW"/><use transform="matrix(0.05,0,0,0.05,88.85000000000001,0)" xlink:href="#bx"/><use transform="matrix(0.05,0,0,0.05,94.80000000000001,0)" xlink:href="#bn"/><use transform="matrix(0.05,0,0,0.05,99.80000000000001,0)" xlink:href="#aU"/><use transform="matrix(0.05,0,0,0.05,103.75,0)" xlink:href="#ba"/><use transform="matrix(0.05,0,0,0.05,113.75,0)" xlink:href="#aT"/><use transform="matrix(0.05,0,0,0.05,123.75,0)" xlink:href="#bf"/></g><g id="J"><use transform="matrix(0.05,0,0,0.05,0,0)" xlink:href="#bt"/><use transform="matrix(0.05,0,0,0.05,10,0)" xlink:href="#ba"/><use transform="matrix(0.05,0,0,0.05,20,0)" xlink:href="#ba"/><use transform="matrix(0.05,0,0,0.05,30,0)" xlink:href="#aU"/></g><g id="K"><use transform="matrix(0.05,0,0,0.05,0,0)" xlink:href="#bd"/><use transform="matrix(0.05,0,0,0.05,3.95,0)" xlink:href="#bg"/><use transform="matrix(0.05,0,0,0.05,12.949999999999998,0)" xlink:href="#bG"/><use transform="matrix(0.05,0,0,0.05,25.899999999999995,0)" xlink:href="#aU"/><use transform="matrix(0.05,0,0,0.05,29.849999999999994,0)" xlink:href="#ba"/><use transform="matrix(0.05,0,0,0.05,39.849999999999994,0)" xlink:href="#aZ"/><use transform="matrix(0.05,0,0,0.05,48.849999999999994,0)" xlink:href="#aV"/><use transform="matrix(0.05,0,0,0.05,57.849999999999994,0)" xlink:href="#bj"/><use transform="matrix(0.05,0,0,0.05,70.8,0)" xlink:href="#bd"/><use transform="matrix(0.05,0,0,0.05,74.75,0)" xlink:href="#bg"/><use transform="matrix(0.05,0,0,0.05,83.75,0)" xlink:href="#aW"/><use transform="matrix(0.05,0,0,0.05,93.75,0)" xlink:href="#by"/></g><g id="L"><use transform="matrix(0.05,0,0,0.05,0,0)" xlink:href="#aS"/><use transform="matrix(0.05,0,0,0.05,16.3,0)" xlink:href="#aT"/><use transform="matrix(0.05,0,0,0.05,26.3,0)" xlink:href="#aU"/><use transform="matrix(0.05,0,0,0.05,30.25,0)" xlink:href="#aV"/><use transform="matrix(0.05,0,0,0.05,39.25,0)" xlink:href="#aW"/><use transform="matrix(0.05,0,0,0.05,49.25,0)" xlink:href="#aX"/><use transform="matrix(0.05,0,0,0.05,55.2,0)" xlink:href="#bD"/><use transform="matrix(0.05,0,0,0.05,65.2,0)" xlink:href="#aW"/><use transform="matrix(0.05,0,0,0.05,75.2,0)" xlink:href="#bp"/></g><path d="M240 0l2-218c-23 76-54 145-80 218h-23L58-218 59 0H30v-248h44l77 211c21-75 51-140 76-211h43V0h-30" id="bI"/><g id="M"><use transform="matrix(0.05,0,0,0.05,0,0)" xlink:href="#bF"/><use transform="matrix(0.05,0,0,0.05,10,0)" xlink:href="#bd"/><use transform="matrix(0.05,0,0,0.05,13.949999999999998,0)" xlink:href="#bm"/><use transform="matrix(0.05,0,0,0.05,23.95,0)" xlink:href="#bI"/><use transform="matrix(0.05,0,0,0.05,38.9,0)" xlink:href="#ba"/><use transform="matrix(0.05,0,0,0.05,48.9,0)" xlink:href="#bf"/><use transform="matrix(0.05,0,0,0.05,53.900000000000006,0)" xlink:href="#ba"/><use transform="matrix(0.05,0,0,0.05,63.900000000000006,0)" xlink:href="#aX"/><use transform="matrix(0.05,0,0,0.05,69.85,0)" xlink:href="#bE"/><use transform="matrix(0.05,0,0,0.05,74.85,0)" xlink:href="#bi"/><use transform="matrix(0.05,0,0,0.05,84.85,0)" xlink:href="#bb"/><use transform="matrix(0.05,0,0,0.05,94.85,0)" xlink:href="#bc"/></g><g id="N"><use transform="matrix(0.05,0,0,0.05,0,0)" xlink:href="#aV"/><use transform="matrix(0.05,0,0,0.05,9,0)" xlink:href="#be"/><use transform="matrix(0.05,0,0,0.05,19,0)" xlink:href="#aW"/><use transform="matrix(0.05,0,0,0.05,29,0)" xlink:href="#aW"/><use transform="matrix(0.05,0,0,0.05,39,0)" xlink:href="#bI"/><use transform="matrix(0.05,0,0,0.05,53.95,0)" xlink:href="#ba"/><use transform="matrix(0.05,0,0,0.05,63.95,0)" xlink:href="#bf"/><use transform="matrix(0.05,0,0,0.05,68.95,0)" xlink:href="#ba"/><use transform="matrix(0.05,0,0,0.05,78.95,0)" xlink:href="#aX"/><use transform="matrix(0.05,0,0,0.05,84.9,0)" xlink:href="#bE"/><use transform="matrix(0.05,0,0,0.05,89.9,0)" xlink:href="#bi"/><use transform="matrix(0.05,0,0,0.05,99.9,0)" xlink:href="#bb"/><use transform="matrix(0.05,0,0,0.05,109.9,0)" xlink:href="#bc"/></g><path d="M160-131c35 5 61 23 61 61C221 17 115-2 30 0v-248c76 3 177-17 177 60 0 33-19 50-47 57zm-97-11c50-1 110 9 110-42 0-47-63-36-110-37v79zm0 115c55-2 124 14 124-45 0-56-70-42-124-44v89" id="bJ"/><g id="O"><use transform="matrix(0.05,0,0,0.05,0,0)" xlink:href="#bF"/><use transform="matrix(0.05,0,0,0.05,10,0)" xlink:href="#bd"/><use transform="matrix(0.05,0,0,0.05,13.949999999999998,0)" xlink:href="#bm"/><use transform="matrix(0.05,0,0,0.05,23.95,0)" xlink:href="#bJ"/><use transform="matrix(0.05,0,0,0.05,35.95,0)" xlink:href="#bd"/><use transform="matrix(0.05,0,0,0.05,39.900000000000006,0)" xlink:href="#aT"/><use transform="matrix(0.05,0,0,0.05,49.900000000000006,0)" xlink:href="#bg"/><use transform="matrix(0.05,0,0,0.05,58.900000000000006,0)" xlink:href="#bb"/><use transform="matrix(0.05,0,0,0.05,68.9,0)" xlink:href="#bc"/></g><g id="P"><use transform="matrix(0.05,0,0,0.05,0,0)" xlink:href="#aV"/><use transform="matrix(0.05,0,0,0.05,9,0)" xlink:href="#be"/><use transform="matrix(0.05,0,0,0.05,19,0)" xlink:href="#aW"/><use transform="matrix(0.05,0,0,0.05,29,0)" xlink:href="#aW"/><use transform="matrix(0.05,0,0,0.05,39,0)" xlink:href="#bJ"/><use transform="matrix(0.05,0,0,0.05,51,0)" xlink:href="#bd"/><use transform="matrix(0.05,0,0,0.05,54.95,0)" xlink:href="#aT"/><use transform="matrix(0.05,0,0,0.05,64.95,0)" xlink:href="#bg"/><use transform="matrix(0.05,0,0,0.05,73.95,0)" xlink:href="#bb"/><use transform="matrix(0.05,0,0,0.05,83.95,0)" xlink:href="#bc"/></g><path d="M108 0H70L1-190h34L89-25l56-165h34" id="bK"/><g id="Q"><use transform="matrix(0.05,0,0,0.05,0,0)" xlink:href="#bg"/><use transform="matrix(0.05,0,0,0.05,9,0)" xlink:href="#aW"/><use transform="matrix(0.05,0,0,0.05,19,0)" xlink:href="#aX"/><use transform="matrix(0.05,0,0,0.05,24.95,0)" xlink:href="#bK"/><use transform="matrix(0.05,0,0,0.05,33.95,0)" xlink:href="#ba"/><use transform="matrix(0.05,0,0,0.05,43.95,0)" xlink:href="#bb"/><use transform="matrix(0.05,0,0,0.05,53.95,0)" xlink:href="#bs"/><use transform="matrix(0.05,0,0,0.05,68.9,0)" xlink:href="#aT"/><use transform="matrix(0.05,0,0,0.05,78.9,0)" xlink:href="#bA"/><use transform="matrix(0.05,0,0,0.05,87.9,0)" xlink:href="#bb"/><use transform="matrix(0.05,0,0,0.05,97.9,0)" xlink:href="#bc"/></g><g id="R"><use transform="matrix(0.05,0,0,0.05,0,0)" xlink:href="#bg"/><use transform="matrix(0.05,0,0,0.05,9,0)" xlink:href="#aW"/><use transform="matrix(0.05,0,0,0.05,19,0)" xlink:href="#aX"/><use transform="matrix(0.05,0,0,0.05,24.95,0)" xlink:href="#bK"/><use transform="matrix(0.05,0,0,0.05,33.95,0)" xlink:href="#ba"/><use transform="matrix(0.05,0,0,0.05,43.95,0)" xlink:href="#bb"/><use transform="matrix(0.05,0,0,0.05,53.95,0)" xlink:href="#bs"/><use transform="matrix(0.05,0,0,0.05,68.9,0)" xlink:href="#bd"/><use transform="matrix(0.05,0,0,0.05,72.85000000000001,0)" xlink:href="#be"/><use transform="matrix(0.05,0,0,0.05,82.85000000000001,0)" xlink:href="#bb"/><use transform="matrix(0.05,0,0,0.05,92.85000000000001,0)" xlink:href="#bc"/></g><g id="S"><use transform="matrix(0.05,0,0,0.05,0,0)" xlink:href="#bd"/><use transform="matrix(0.05,0,0,0.05,3.95,0)" xlink:href="#bg"/><use transform="matrix(0.05,0,0,0.05,12.949999999999998,0)" xlink:href="#bh"/><use transform="matrix(0.05,0,0,0.05,25.899999999999995,0)" xlink:href="#bd"/><use transform="matrix(0.05,0,0,0.05,29.849999999999994,0)" xlink:href="#bm"/><use transform="matrix(0.05,0,0,0.05,39.849999999999994,0)" xlink:href="#bH"/><use transform="matrix(0.05,0,0,0.05,52.79999999999999,0)" xlink:href="#aW"/><use transform="matrix(0.05,0,0,0.05,62.79999999999999,0)" xlink:href="#bK"/><use transform="matrix(0.05,0,0,0.05,71.8,0)" xlink:href="#aW"/><use transform="matrix(0.05,0,0,0.05,81.8,0)" xlink:href="#aX"/><use transform="matrix(0.05,0,0,0.05,87.75,0)" xlink:href="#bg"/><use transform="matrix(0.05,0,0,0.05,96.75,0)" xlink:href="#aW"/><use transform="matrix(0.05,0,0,0.05,106.75,0)" xlink:href="#bi"/><use transform="matrix(0.05,0,0,0.05,116.75,0)" xlink:href="#bb"/><use transform="matrix(0.05,0,0,0.05,126.75,0)" xlink:href="#bc"/></g><path d="M194 0L95-120 63-95V0H30v-248h33v124l119-124h40L117-140 236 0h-42" id="bL"/><g id="T"><use transform="matrix(0.05,0,0,0.05,0,0)" xlink:href="#bd"/><use transform="matrix(0.05,0,0,0.05,3.95,0)" xlink:href="#bg"/><use transform="matrix(0.05,0,0,0.05,12.949999999999998,0)" xlink:href="#bL"/><use transform="matrix(0.05,0,0,0.05,24.95,0)" xlink:href="#be"/><use transform="matrix(0.05,0,0,0.05,34.95,0)" xlink:href="#aW"/><use transform="matrix(0.05,0,0,0.05,44.95,0)" xlink:href="#aW"/><use transform="matrix(0.05,0,0,0.05,54.95,0)" xlink:href="#bH"/><use transform="matrix(0.05,0,0,0.05,67.9,0)" xlink:href="#aW"/><use transform="matrix(0.05,0,0,0.05,77.9,0)" xlink:href="#bK"/><use transform="matrix(0.05,0,0,0.05,86.9,0)" xlink:href="#aW"/><use transform="matrix(0.05,0,0,0.05,96.9,0)" xlink:href="#aX"/><use transform="matrix(0.05,0,0,0.05,102.85000000000001,0)" xlink:href="#bg"/><use transform="matrix(0.05,0,0,0.05,111.85000000000001,0)" xlink:href="#aW"/><use transform="matrix(0.05,0,0,0.05,121.85000000000001,0)" xlink:href="#bi"/><use transform="matrix(0.05,0,0,0.05,131.85000000000002,0)" xlink:href="#bb"/><use transform="matrix(0.05,0,0,0.05,141.85000000000002,0)" xlink:href="#bc"/></g><g id="U"><use transform="matrix(0.05,0,0,0.05,0,0)" xlink:href="#bi"/><use transform="matrix(0.05,0,0,0.05,10,0)" xlink:href="#bA"/><use transform="matrix(0.05,0,0,0.05,19,0)" xlink:href="#aU"/><use transform="matrix(0.05,0,0,0.05,22.95,0)" xlink:href="#bb"/><use transform="matrix(0.05,0,0,0.05,32.95,0)" xlink:href="#bc"/></g><g id="V"><use transform="matrix(0.05,0,0,0.05,0,0)" xlink:href="#bv"/><use transform="matrix(0.05,0,0,0.05,12.950000000000001,0)" xlink:href="#bz"/><use transform="matrix(0.05,0,0,0.05,21.950000000000003,0)" xlink:href="#be"/><use transform="matrix(0.05,0,0,0.05,31.950000000000003,0)" xlink:href="#aT"/><use transform="matrix(0.05,0,0,0.05,41.95,0)" xlink:href="#bs"/><use transform="matrix(0.05,0,0,0.05,56.900000000000006,0)" xlink:href="#bd"/><use transform="matrix(0.05,0,0,0.05,60.85,0)" xlink:href="#bA"/><use transform="matrix(0.05,0,0,0.05,69.85000000000001,0)" xlink:href="#aW"/><use transform="matrix(0.05,0,0,0.05,79.85000000000001,0)" xlink:href="#aU"/><use transform="matrix(0.05,0,0,0.05,83.80000000000001,0)" xlink:href="#bl"/></g><g id="W"><use transform="matrix(0.05,0,0,0.05,0,0)" xlink:href="#aS"/><use transform="matrix(0.05,0,0,0.05,16.3,0)" xlink:href="#aT"/><use transform="matrix(0.05,0,0,0.05,26.3,0)" xlink:href="#aU"/><use transform="matrix(0.05,0,0,0.05,30.25,0)" xlink:href="#aV"/><use transform="matrix(0.05,0,0,0.05,39.25,0)" xlink:href="#aW"/><use transform="matrix(0.05,0,0,0.05,49.25,0)" xlink:href="#aX"/><use transform="matrix(0.05,0,0,0.05,55.2,0)" xlink:href="#bD"/><use transform="matrix(0.05,0,0,0.05,65.2,0)" xlink:href="#aW"/><use transform="matrix(0.05,0,0,0.05,75.2,0)" xlink:href="#bp"/><use transform="matrix(0.05,0,0,0.05,85.2,0)" xlink:href="#bx"/><use transform="matrix(0.05,0,0,0.05,91.15,0)" xlink:href="#by"/></g><g id="X"><use transform="matrix(0.05,0,0,0.05,0,0)" xlink:href="#bd"/><use transform="matrix(0.05,0,0,0.05,3.95,0)" xlink:href="#be"/><use transform="matrix(0.05,0,0,0.05,13.949999999999998,0)" xlink:href="#bf"/></g><g id="Y"><use transform="matrix(0.05,0,0,0.05,0,0)" xlink:href="#bF"/><use transform="matrix(0.05,0,0,0.05,10,0)" xlink:href="#bd"/><use transform="matrix(0.05,0,0,0.05,13.949999999999998,0)" xlink:href="#bm"/><use transform="matrix(0.05,0,0,0.05,23.95,0)" xlink:href="#bI"/><use transform="matrix(0.05,0,0,0.05,38.9,0)" xlink:href="#ba"/><use transform="matrix(0.05,0,0,0.05,48.9,0)" xlink:href="#bf"/><use transform="matrix(0.05,0,0,0.05,53.900000000000006,0)" xlink:href="#ba"/><use transform="matrix(0.05,0,0,0.05,63.900000000000006,0)" xlink:href="#aX"/><use transform="matrix(0.05,0,0,0.05,69.85,0)" xlink:href="#bE"/><use transform="matrix(0.05,0,0,0.05,74.85,0)" xlink:href="#bi"/><use transform="matrix(0.05,0,0,0.05,84.85,0)" xlink:href="#bB"/></g><g id="Z"><use transform="matrix(0.05,0,0,0.05,0,0)" xlink:href="#aV"/><use transform="matrix(0.05,0,0,0.05,9,0)" xlink:href="#be"/><use transform="matrix(0.05,0,0,0.05,19,0)" xlink:href="#aW"/><use transform="matrix(0.05,0,0,0.05,29,0)" xlink:href="#aW"/><use transform="matrix(0.05,0,0,0.05,39,0)" xlink:href="#bI"/><use transform="matrix(0.05,0,0,0.05,53.95,0)" xlink:href="#ba"/><use transform="matrix(0.05,0,0,0.05,63.95,0)" xlink:href="#bf"/><use transform="matrix(0.05,0,0,0.05,68.95,0)" xlink:href="#ba"/><use transform="matrix(0.05,0,0,0.05,78.95,0)" xlink:href="#aX"/><use transform="matrix(0.05,0,0,0.05,84.9,0)" xlink:href="#bE"/><use transform="matrix(0.05,0,0,0.05,89.9,0)" xlink:href="#bi"/><use transform="matrix(0.05,0,0,0.05,99.9,0)" xlink:href="#by"/></g><g id="aa"><use transform="matrix(0.05,0,0,0.05,0,0)" xlink:href="#bg"/><use transform="matrix(0.05,0,0,0.05,9,0)" xlink:href="#aW"/><use transform="matrix(0.05,0,0,0.05,19,0)" xlink:href="#bf"/><use transform="matrix(0.05,0,0,0.05,24,0)" xlink:href="#bE"/><use transform="matrix(0.05,0,0,0.05,29,0)" xlink:href="#bg"/><use transform="matrix(0.05,0,0,0.05,38,0)" xlink:href="#bH"/><use transform="matrix(0.05,0,0,0.05,50.95,0)" xlink:href="#aW"/><use transform="matrix(0.05,0,0,0.05,60.95,0)" xlink:href="#bK"/><use transform="matrix(0.05,0,0,0.05,69.95,0)" xlink:href="#aW"/><use transform="matrix(0.05,0,0,0.05,79.95,0)" xlink:href="#aX"/><use transform="matrix(0.05,0,0,0.05,85.9,0)" xlink:href="#bg"/><use transform="matrix(0.05,0,0,0.05,94.9,0)" xlink:href="#aW"/><use transform="matrix(0.05,0,0,0.05,104.9,0)" xlink:href="#bi"/><use transform="matrix(0.05,0,0,0.05,114.9,0)" xlink:href="#bx"/><use transform="matrix(0.05,0,0,0.05,120.85000000000001,0)" xlink:href="#bt"/><use transform="matrix(0.05,0,0,0.05,130.85000000000002,0)" xlink:href="#ba"/><use transform="matrix(0.05,0,0,0.05,140.85000000000002,0)" xlink:href="#ba"/><use transform="matrix(0.05,0,0,0.05,150.85000000000002,0)" xlink:href="#aU"/></g><g id="ab"><use transform="matrix(0.05,0,0,0.05,0,0)" xlink:href="#bd"/><use transform="matrix(0.05,0,0,0.05,3.95,0)" xlink:href="#bg"/><use transform="matrix(0.05,0,0,0.05,12.949999999999998,0)" xlink:href="#bh"/><use transform="matrix(0.05,0,0,0.05,25.899999999999995,0)" xlink:href="#bd"/><use transform="matrix(0.05,0,0,0.05,29.849999999999994,0)" xlink:href="#bm"/><use transform="matrix(0.05,0,0,0.05,39.849999999999994,0)" xlink:href="#bH"/><use transform="matrix(0.05,0,0,0.05,52.79999999999999,0)" xlink:href="#aW"/><use transform="matrix(0.05,0,0,0.05,62.79999999999999,0)" xlink:href="#bK"/><use transform="matrix(0.05,0,0,0.05,71.8,0)" xlink:href="#aW"/><use transform="matrix(0.05,0,0,0.05,81.8,0)" xlink:href="#aX"/><use transform="matrix(0.05,0,0,0.05,87.75,0)" xlink:href="#bg"/><use transform="matrix(0.05,0,0,0.05,96.75,0)" xlink:href="#aW"/><use transform="matrix(0.05,0,0,0.05,106.75,0)" xlink:href="#bi"/><use transform="matrix(0.05,0,0,0.05,116.75,0)" xlink:href="#bB"/></g><g id="ac"><use transform="matrix(0.05,0,0,0.05,0,0)" xlink:href="#bd"/><use transform="matrix(0.05,0,0,0.05,3.95,0)" xlink:href="#bg"/><use transform="matrix(0.05,0,0,0.05,12.949999999999998,0)" xlink:href="#bL"/><use transform="matrix(0.05,0,0,0.05,24.95,0)" xlink:href="#be"/><use transform="matrix(0.05,0,0,0.05,34.95,0)" xlink:href="#aW"/><use transform="matrix(0.05,0,0,0.05,44.95,0)" xlink:href="#aW"/><use transform="matrix(0.05,0,0,0.05,54.95,0)" xlink:href="#bH"/><use transform="matrix(0.05,0,0,0.05,67.9,0)" xlink:href="#aW"/><use transform="matrix(0.05,0,0,0.05,77.9,0)" xlink:href="#bK"/><use transform="matrix(0.05,0,0,0.05,86.9,0)" xlink:href="#aW"/><use transform="matrix(0.05,0,0,0.05,96.9,0)" xlink:href="#aX"/><use transform="matrix(0.05,0,0,0.05,102.85000000000001,0)" xlink:href="#bg"/><use transform="matrix(0.05,0,0,0.05,111.85000000000001,0)" xlink:href="#aW"/><use transform="matrix(0.05,0,0,0.05,121.85000000000001,0)" xlink:href="#bi"/><use transform="matrix(0.05,0,0,0.05,131.85000000000002,0)" xlink:href="#by"/></g><g id="ad"><use transform="matrix(0.05,0,0,0.05,0,0)" xlink:href="#bg"/><use transform="matrix(0.05,0,0,0.05,9,0)" xlink:href="#aW"/><use transform="matrix(0.05,0,0,0.05,19,0)" xlink:href="#bf"/><use transform="matrix(0.05,0,0,0.05,24,0)" xlink:href="#bk"/><use transform="matrix(0.05,0,0,0.05,36,0)" xlink:href="#aW"/><use transform="matrix(0.05,0,0,0.05,46,0)" xlink:href="#aX"/><use transform="matrix(0.05,0,0,0.05,51.95,0)" xlink:href="#bK"/><use transform="matrix(0.05,0,0,0.05,60.95,0)" xlink:href="#ba"/><use transform="matrix(0.05,0,0,0.05,70.95,0)" xlink:href="#bG"/><use transform="matrix(0.05,0,0,0.05,83.9,0)" xlink:href="#ba"/><use transform="matrix(0.05,0,0,0.05,93.9,0)" xlink:href="#be"/><use transform="matrix(0.05,0,0,0.05,103.9,0)" xlink:href="#bn"/><use transform="matrix(0.05,0,0,0.05,108.9,0)" xlink:href="#bx"/><use transform="matrix(0.05,0,0,0.05,114.85000000000001,0)" xlink:href="#bn"/><use transform="matrix(0.05,0,0,0.05,119.85000000000001,0)" xlink:href="#aU"/><use transform="matrix(0.05,0,0,0.05,123.80000000000001,0)" xlink:href="#ba"/><use transform="matrix(0.05,0,0,0.05,133.8,0)" xlink:href="#aT"/><use transform="matrix(0.05,0,0,0.05,143.8,0)" xlink:href="#bf"/></g><g id="ae"><use transform="matrix(0.05,0,0,0.05,0,0)" xlink:href="#bF"/><use transform="matrix(0.05,0,0,0.05,10,0)" xlink:href="#bd"/><use transform="matrix(0.05,0,0,0.05,13.949999999999998,0)" xlink:href="#bm"/><use transform="matrix(0.05,0,0,0.05,23.95,0)" xlink:href="#bJ"/><use transform="matrix(0.05,0,0,0.05,35.95,0)" xlink:href="#bd"/><use transform="matrix(0.05,0,0,0.05,39.900000000000006,0)" xlink:href="#aT"/><use transform="matrix(0.05,0,0,0.05,49.900000000000006,0)" xlink:href="#bg"/><use transform="matrix(0.05,0,0,0.05,58.900000000000006,0)" xlink:href="#bB"/></g><g id="af"><use transform="matrix(0.05,0,0,0.05,0,0)" xlink:href="#aV"/><use transform="matrix(0.05,0,0,0.05,9,0)" xlink:href="#be"/><use transform="matrix(0.05,0,0,0.05,19,0)" xlink:href="#aW"/><use transform="matrix(0.05,0,0,0.05,29,0)" xlink:href="#aW"/><use transform="matrix(0.05,0,0,0.05,39,0)" xlink:href="#bJ"/><use transform="matrix(0.05,0,0,0.05,51,0)" xlink:href="#bd"/><use transform="matrix(0.05,0,0,0.05,54.95,0)" xlink:href="#aT"/><use transform="matrix(0.05,0,0,0.05,64.95,0)" xlink:href="#bg"/><use transform="matrix(0.05,0,0,0.05,73.95,0)" xlink:href="#bB"/></g><g id="ag"><use transform="matrix(0.05,0,0,0.05,0,0)" xlink:href="#aT"/><use transform="matrix(0.05,0,0,0.05,10,0)" xlink:href="#be"/><use transform="matrix(0.05,0,0,0.05,20,0)" xlink:href="#bp"/><use transform="matrix(0.05,0,0,0.05,30,0)" xlink:href="#aU"/><use transform="matrix(0.05,0,0,0.05,33.95,0)" xlink:href="#aW"/><use transform="matrix(0.05,0,0,0.05,43.95,0)" xlink:href="#bI"/><use transform="matrix(0.05,0,0,0.05,58.900000000000006,0)" xlink:href="#aT"/><use transform="matrix(0.05,0,0,0.05,68.9,0)" xlink:href="#bA"/><use transform="matrix(0.05,0,0,0.05,77.9,0)" xlink:href="#bB"/></g><g id="ah"><use transform="matrix(0.05,0,0,0.05,0,0)" xlink:href="#aT"/><use transform="matrix(0.05,0,0,0.05,10,0)" xlink:href="#be"/><use transform="matrix(0.05,0,0,0.05,20,0)" xlink:href="#bp"/><use transform="matrix(0.05,0,0,0.05,30,0)" xlink:href="#aU"/><use transform="matrix(0.05,0,0,0.05,33.95,0)" xlink:href="#aW"/><use transform="matrix(0.05,0,0,0.05,43.95,0)" xlink:href="#bI"/><use transform="matrix(0.05,0,0,0.05,58.900000000000006,0)" xlink:href="#bd"/><use transform="matrix(0.05,0,0,0.05,62.85,0)" xlink:href="#be"/><use transform="matrix(0.05,0,0,0.05,72.85000000000001,0)" xlink:href="#by"/></g><path d="M143 4C61 4 22-44 18-125c-5-107 100-154 193-111 17 8 29 25 37 43l-32 9c-13-25-37-40-76-40-61 0-88 39-88 99 0 61 29 100 91 101 35 0 62-11 79-27v-45h-74v-28h105v86C228-13 192 4 143 4" id="bM"/><path d="M30-248c87 1 191-15 191 75 0 78-77 80-158 76V0H30v-248zm33 125c57 0 124 11 124-50 0-59-68-47-124-48v98" id="bN"/><g id="ai"><use transform="matrix(0.05,0,0,0.05,0,0)" xlink:href="#bg"/><use transform="matrix(0.05,0,0,0.05,9,0)" xlink:href="#aW"/><use transform="matrix(0.05,0,0,0.05,19,0)" xlink:href="#bf"/><use transform="matrix(0.05,0,0,0.05,24,0)" xlink:href="#bM"/><use transform="matrix(0.05,0,0,0.05,38,0)" xlink:href="#ba"/><use transform="matrix(0.05,0,0,0.05,48,0)" xlink:href="#aT"/><use transform="matrix(0.05,0,0,0.05,58,0)" xlink:href="#aU"/><use transform="matrix(0.05,0,0,0.05,61.95,0)" xlink:href="#bN"/><use transform="matrix(0.05,0,0,0.05,73.95,0)" xlink:href="#ba"/><use transform="matrix(0.05,0,0,0.05,83.95,0)" xlink:href="#bg"/><use transform="matrix(0.05,0,0,0.05,92.95,0)" xlink:href="#bd"/><use transform="matrix(0.05,0,0,0.05,96.9,0)" xlink:href="#bf"/><use transform="matrix(0.05,0,0,0.05,101.9,0)" xlink:href="#bd"/><use transform="matrix(0.05,0,0,0.05,105.85000000000001,0)" xlink:href="#ba"/><use transform="matrix(0.05,0,0,0.05,115.85000000000001,0)" xlink:href="#be"/><use transform="matrix(0.05,0,0,0.05,125.85000000000001,0)" xlink:href="#bx"/><use transform="matrix(0.05,0,0,0.05,131.8,0)" xlink:href="#bn"/><use transform="matrix(0.05,0,0,0.05,136.8,0)" xlink:href="#aU"/><use transform="matrix(0.05,0,0,0.05,140.75,0)" xlink:href="#ba"/><use transform="matrix(0.05,0,0,0.05,150.75,0)" xlink:href="#aT"/><use transform="matrix(0.05,0,0,0.05,160.75,0)" xlink:href="#bf"/></g><g id="aj"><use transform="matrix(0.05,0,0,0.05,0,0)" xlink:href="#bF"/><use transform="matrix(0.05,0,0,0.05,10,0)" xlink:href="#bd"/><use transform="matrix(0.05,0,0,0.05,13.949999999999998,0)" xlink:href="#bm"/><use transform="matrix(0.05,0,0,0.05,23.95,0)" xlink:href="#bq"/><use transform="matrix(0.05,0,0,0.05,35.95,0)" xlink:href="#be"/><use transform="matrix(0.05,0,0,0.05,45.95,0)" xlink:href="#bp"/><use transform="matrix(0.05,0,0,0.05,55.95,0)" xlink:href="#aU"/><use transform="matrix(0.05,0,0,0.05,59.900000000000006,0)" xlink:href="#aW"/><use transform="matrix(0.05,0,0,0.05,69.9,0)" xlink:href="#bB"/></g><g id="ak"><use transform="matrix(0.05,0,0,0.05,0,0)" xlink:href="#aV"/><use transform="matrix(0.05,0,0,0.05,9,0)" xlink:href="#be"/><use transform="matrix(0.05,0,0,0.05,19,0)" xlink:href="#aW"/><use transform="matrix(0.05,0,0,0.05,29,0)" xlink:href="#aW"/><use transform="matrix(0.05,0,0,0.05,39,0)" xlink:href="#bq"/><use transform="matrix(0.05,0,0,0.05,51,0)" xlink:href="#be"/><use transform="matrix(0.05,0,0,0.05,61,0)" xlink:href="#bp"/><use transform="matrix(0.05,0,0,0.05,71,0)" xlink:href="#aU"/><use transform="matrix(0.05,0,0,0.05,74.95,0)" xlink:href="#aW"/><use transform="matrix(0.05,0,0,0.05,84.95,0)" xlink:href="#by"/></g><g id="al"><use transform="matrix(0.05,0,0,0.05,0,0)" xlink:href="#bg"/><use transform="matrix(0.05,0,0,0.05,9,0)" xlink:href="#aW"/><use transform="matrix(0.05,0,0,0.05,19,0)" xlink:href="#bf"/><use transform="matrix(0.05,0,0,0.05,24,0)" xlink:href="#bM"/><use transform="matrix(0.05,0,0,0.05,38,0)" xlink:href="#ba"/><use transform="matrix(0.05,0,0,0.05,48,0)" xlink:href="#aT"/><use transform="matrix(0.05,0,0,0.05,58,0)" xlink:href="#aU"/><use transform="matrix(0.05,0,0,0.05,61.95,0)" xlink:href="#bN"/><use transform="matrix(0.05,0,0,0.05,73.95,0)" xlink:href="#ba"/><use transform="matrix(0.05,0,0,0.05,83.95,0)" xlink:href="#bg"/><use transform="matrix(0.05,0,0,0.05,92.95,0)" xlink:href="#bd"/><use transform="matrix(0.05,0,0,0.05,96.9,0)" xlink:href="#bf"/><use transform="matrix(0.05,0,0,0.05,101.9,0)" xlink:href="#bd"/><use transform="matrix(0.05,0,0,0.05,105.85000000000001,0)" xlink:href="#ba"/><use transform="matrix(0.05,0,0,0.05,115.85000000000001,0)" xlink:href="#be"/><use transform="matrix(0.05,0,0,0.05,125.85000000000001,0)" xlink:href="#bG"/><use transform="matrix(0.05,0,0,0.05,138.8,0)" xlink:href="#ba"/><use transform="matrix(0.05,0,0,0.05,148.8,0)" xlink:href="#bs"/><use transform="matrix(0.05,0,0,0.05,163.75,0)" xlink:href="#bs"/><use transform="matrix(0.05,0,0,0.05,178.7,0)" xlink:href="#aT"/><use transform="matrix(0.05,0,0,0.05,188.7,0)" xlink:href="#be"/><use transform="matrix(0.05,0,0,0.05,198.7,0)" xlink:href="#bi"/><use transform="matrix(0.05,0,0,0.05,208.69999999999996,0)" xlink:href="#bx"/><use transform="matrix(0.05,0,0,0.05,214.64999999999998,0)" xlink:href="#bd"/><use transform="matrix(0.05,0,0,0.05,218.59999999999997,0)" xlink:href="#be"/><use transform="matrix(0.05,0,0,0.05,228.59999999999997,0)" xlink:href="#bf"/></g><g id="am"><use transform="matrix(0.05,0,0,0.05,0,0)" xlink:href="#bF"/><use transform="matrix(0.05,0,0,0.05,10,0)" xlink:href="#bd"/><use transform="matrix(0.05,0,0,0.05,13.949999999999998,0)" xlink:href="#bm"/><use transform="matrix(0.05,0,0,0.05,23.95,0)" xlink:href="#bG"/><use transform="matrix(0.05,0,0,0.05,36.9,0)" xlink:href="#ba"/><use transform="matrix(0.05,0,0,0.05,46.9,0)" xlink:href="#bs"/><use transform="matrix(0.05,0,0,0.05,61.85,0)" xlink:href="#bs"/><use transform="matrix(0.05,0,0,0.05,76.8,0)" xlink:href="#aT"/><use transform="matrix(0.05,0,0,0.05,86.8,0)" xlink:href="#be"/><use transform="matrix(0.05,0,0,0.05,96.8,0)" xlink:href="#bi"/><use transform="matrix(0.05,0,0,0.05,106.80000000000001,0)" xlink:href="#bB"/></g><g id="an"><use transform="matrix(0.05,0,0,0.05,0,0)" xlink:href="#aV"/><use transform="matrix(0.05,0,0,0.05,9,0)" xlink:href="#be"/><use transform="matrix(0.05,0,0,0.05,19,0)" xlink:href="#aW"/><use transform="matrix(0.05,0,0,0.05,29,0)" xlink:href="#aW"/><use transform="matrix(0.05,0,0,0.05,39,0)" xlink:href="#bG"/><use transform="matrix(0.05,0,0,0.05,51.95,0)" xlink:href="#ba"/><use transform="matrix(0.05,0,0,0.05,61.95,0)" xlink:href="#bs"/><use transform="matrix(0.05,0,0,0.05,76.9,0)" xlink:href="#bs"/><use transform="matrix(0.05,0,0,0.05,91.85000000000001,0)" xlink:href="#aT"/><use transform="matrix(0.05,0,0,0.05,101.85000000000001,0)" xlink:href="#be"/><use transform="matrix(0.05,0,0,0.05,111.85000000000001,0)" xlink:href="#bi"/><use transform="matrix(0.05,0,0,0.05,121.85000000000001,0)" xlink:href="#by"/></g><g id="ao"><use transform="matrix(0.05,0,0,0.05,0,0)" xlink:href="#bp"/><use transform="matrix(0.05,0,0,0.05,10,0)" xlink:href="#aW"/><use transform="matrix(0.05,0,0,0.05,20,0)" xlink:href="#bf"/><use transform="matrix(0.05,0,0,0.05,25,0)" xlink:href="#bh"/><use transform="matrix(0.05,0,0,0.05,37.95,0)" xlink:href="#bd"/><use transform="matrix(0.05,0,0,0.05,41.900000000000006,0)" xlink:href="#bm"/><use transform="matrix(0.05,0,0,0.05,51.900000000000006,0)" xlink:href="#bN"/><use transform="matrix(0.05,0,0,0.05,63.900000000000006,0)" xlink:href="#ba"/><use transform="matrix(0.05,0,0,0.05,73.9,0)" xlink:href="#bg"/><use transform="matrix(0.05,0,0,0.05,82.9,0)" xlink:href="#bd"/><use transform="matrix(0.05,0,0,0.05,86.85000000000001,0)" xlink:href="#bf"/><use transform="matrix(0.05,0,0,0.05,91.85000000000001,0)" xlink:href="#bd"/><use transform="matrix(0.05,0,0,0.05,95.80000000000001,0)" xlink:href="#ba"/><use transform="matrix(0.05,0,0,0.05,105.80000000000001,0)" xlink:href="#be"/><use transform="matrix(0.05,0,0,0.05,115.80000000000001,0)" xlink:href="#bx"/><use transform="matrix(0.05,0,0,0.05,121.75,0)" xlink:href="#by"/></g><g id="ap"><use transform="matrix(0.05,0,0,0.05,0,0)" xlink:href="#bp"/><use transform="matrix(0.05,0,0,0.05,10,0)" xlink:href="#aW"/><use transform="matrix(0.05,0,0,0.05,20,0)" xlink:href="#bf"/><use transform="matrix(0.05,0,0,0.05,25,0)" xlink:href="#bL"/><use transform="matrix(0.05,0,0,0.05,37,0)" xlink:href="#be"/><use transform="matrix(0.05,0,0,0.05,47,0)" xlink:href="#aW"/><use transform="matrix(0.05,0,0,0.05,57,0)" xlink:href="#aW"/><use transform="matrix(0.05,0,0,0.05,67,0)" xlink:href="#bN"/><use transform="matrix(0.05,0,0,0.05,79,0)" xlink:href="#ba"/><use transform="matrix(0.05,0,0,0.05,89,0)" xlink:href="#bg"/><use transform="matrix(0.05,0,0,0.05,98,0)" xlink:href="#bd"/><use transform="matrix(0.05,0,0,0.05,101.95,0)" xlink:href="#bf"/><use transform="matrix(0.05,0,0,0.05,106.95,0)" xlink:href="#bd"/><use transform="matrix(0.05,0,0,0.05,110.9,0)" xlink:href="#ba"/><use transform="matrix(0.05,0,0,0.05,120.9,0)" xlink:href="#be"/><use transform="matrix(0.05,0,0,0.05,130.9,0)" xlink:href="#bx"/><use transform="matrix(0.05,0,0,0.05,136.85,0)" xlink:href="#by"/></g><g id="aq"><use transform="matrix(0.05,0,0,0.05,0,0)" xlink:href="#aS"/><use transform="matrix(0.05,0,0,0.05,16.3,0)" xlink:href="#aT"/><use transform="matrix(0.05,0,0,0.05,26.3,0)" xlink:href="#aU"/><use transform="matrix(0.05,0,0,0.05,30.25,0)" xlink:href="#aV"/><use transform="matrix(0.05,0,0,0.05,39.25,0)" xlink:href="#aW"/><use transform="matrix(0.05,0,0,0.05,49.25,0)" xlink:href="#aX"/><use transform="matrix(0.05,0,0,0.05,55.2,0)" xlink:href="#bk"/><use transform="matrix(0.05,0,0,0.05,67.2,0)" xlink:href="#aW"/><use transform="matrix(0.05,0,0,0.05,77.2,0)" xlink:href="#be"/><use transform="matrix(0.05,0,0,0.05,87.2,0)" xlink:href="#bg"/><use transform="matrix(0.05,0,0,0.05,96.2,0)" xlink:href="#ba"/><use transform="matrix(0.05,0,0,0.05,106.2,0)" xlink:href="#aX"/></g><g id="ar"><use transform="matrix(0.05,0,0,0.05,0,0)" xlink:href="#ba"/><use transform="matrix(0.05,0,0,0.05,10,0)" xlink:href="#aU"/><use transform="matrix(0.05,0,0,0.05,13.949999999999998,0)" xlink:href="#aU"/><use transform="matrix(0.05,0,0,0.05,17.9,0)" xlink:href="#ba"/><use transform="matrix(0.05,0,0,0.05,27.899999999999995,0)" xlink:href="#bb"/><use transform="matrix(0.05,0,0,0.05,37.9,0)" xlink:href="#bc"/></g><g id="as"><use transform="matrix(0.05,0,0,0.05,0,0)" xlink:href="#bC"/><use transform="matrix(0.05,0,0,0.05,14,0)" xlink:href="#bD"/><use transform="matrix(0.05,0,0,0.05,24,0)" xlink:href="#bD"/><use transform="matrix(0.05,0,0,0.05,34,0)" xlink:href="#bC"/><use transform="matrix(0.05,0,0,0.05,48,0)" xlink:href="#bl"/></g><g id="at"><use transform="matrix(0.05,0,0,0.05,0,0)" xlink:href="#bd"/><use transform="matrix(0.05,0,0,0.05,3.95,0)" xlink:href="#bi"/><use transform="matrix(0.05,0,0,0.05,13.949999999999998,0)" xlink:href="#bb"/><use transform="matrix(0.05,0,0,0.05,23.95,0)" xlink:href="#bc"/></g><g id="au"><use transform="matrix(0.05,0,0,0.05,0,0)" xlink:href="#aU"/><use transform="matrix(0.05,0,0,0.05,3.95,0)" xlink:href="#aT"/><use transform="matrix(0.05,0,0,0.05,13.949999999999998,0)" xlink:href="#bg"/><use transform="matrix(0.05,0,0,0.05,22.95,0)" xlink:href="#bf"/><use transform="matrix(0.05,0,0,0.05,27.950000000000003,0)" xlink:href="#bb"/><use transform="matrix(0.05,0,0,0.05,37.95,0)" xlink:href="#bc"/><use transform="matrix(0.05,0,0,0.05,42.95,0)" xlink:href="#bn"/><use transform="matrix(0.05,0,0,0.05,47.95,0)" xlink:href="#aU"/><use transform="matrix(0.05,0,0,0.05,51.900000000000006,0)" xlink:href="#ba"/><use transform="matrix(0.05,0,0,0.05,61.900000000000006,0)" xlink:href="#aT"/><use transform="matrix(0.05,0,0,0.05,71.9,0)" xlink:href="#bf"/></g><g id="av"><use transform="matrix(0.05,0,0,0.05,0,0)" xlink:href="#aU"/><use transform="matrix(0.05,0,0,0.05,3.95,0)" xlink:href="#aT"/><use transform="matrix(0.05,0,0,0.05,13.949999999999998,0)" xlink:href="#bg"/><use transform="matrix(0.05,0,0,0.05,22.95,0)" xlink:href="#bf"/><use transform="matrix(0.05,0,0,0.05,27.950000000000003,0)" xlink:href="#bH"/><use transform="matrix(0.05,0,0,0.05,40.9,0)" xlink:href="#aT"/><use transform="matrix(0.05,0,0,0.05,50.9,0)" xlink:href="#bj"/><use transform="matrix(0.05,0,0,0.05,63.85,0)" xlink:href="#bb"/><use transform="matrix(0.05,0,0,0.05,73.85,0)" xlink:href="#bc"/></g><g id="aw"><use transform="matrix(0.05,0,0,0.05,0,0)" xlink:href="#bf"/><use transform="matrix(0.05,0,0,0.05,5,0)" xlink:href="#bz"/><use transform="matrix(0.05,0,0,0.05,14,0)" xlink:href="#bm"/><use transform="matrix(0.05,0,0,0.05,24,0)" xlink:href="#aW"/><use transform="matrix(0.05,0,0,0.05,34,0)" xlink:href="#bb"/><use transform="matrix(0.05,0,0,0.05,44,0)" xlink:href="#bc"/></g><g id="ax"><use transform="matrix(0.05,0,0,0.05,0,0)" xlink:href="#bC"/><use transform="matrix(0.05,0,0,0.05,14,0)" xlink:href="#aU"/><use transform="matrix(0.05,0,0,0.05,17.95,0)" xlink:href="#aU"/><use transform="matrix(0.05,0,0,0.05,21.9,0)" xlink:href="#ba"/><use transform="matrix(0.05,0,0,0.05,31.899999999999995,0)" xlink:href="#bv"/><use transform="matrix(0.05,0,0,0.05,44.85,0)" xlink:href="#aW"/><use transform="matrix(0.05,0,0,0.05,54.85,0)" xlink:href="#bK"/><use transform="matrix(0.05,0,0,0.05,63.85,0)" xlink:href="#bd"/><use transform="matrix(0.05,0,0,0.05,67.8,0)" xlink:href="#aZ"/><use transform="matrix(0.05,0,0,0.05,76.8,0)" xlink:href="#aW"/><use transform="matrix(0.05,0,0,0.05,86.8,0)" xlink:href="#bE"/><use transform="matrix(0.05,0,0,0.05,91.8,0)" xlink:href="#be"/><use transform="matrix(0.05,0,0,0.05,101.8,0)" xlink:href="#bi"/><use transform="matrix(0.05,0,0,0.05,111.80000000000001,0)" xlink:href="#aW"/><use transform="matrix(0.05,0,0,0.05,121.80000000000001,0)" xlink:href="#bA"/></g><g id="ay"><use transform="matrix(0.05,0,0,0.05,0,0)" xlink:href="#aT"/><use transform="matrix(0.05,0,0,0.05,10,0)" xlink:href="#bK"/><use transform="matrix(0.05,0,0,0.05,19,0)" xlink:href="#aW"/><use transform="matrix(0.05,0,0,0.05,29,0)" xlink:href="#aX"/><use transform="matrix(0.05,0,0,0.05,34.95,0)" xlink:href="#aT"/><use transform="matrix(0.05,0,0,0.05,44.95,0)" xlink:href="#bp"/><use transform="matrix(0.05,0,0,0.05,54.95,0)" xlink:href="#aW"/><use transform="matrix(0.05,0,0,0.05,64.95,0)" xlink:href="#bg"/><use transform="matrix(0.05,0,0,0.05,73.95,0)" xlink:href="#bb"/><use transform="matrix(0.05,0,0,0.05,83.95,0)" xlink:href="#bc"/></g><g id="az"><use transform="matrix(0.05,0,0,0.05,0,0)" xlink:href="#aT"/><use transform="matrix(0.05,0,0,0.05,10,0)" xlink:href="#bb"/><use transform="matrix(0.05,0,0,0.05,20,0)" xlink:href="#bc"/></g><g id="aA"><use transform="matrix(0.05,0,0,0.05,0,0)" xlink:href="#bt"/><use transform="matrix(0.05,0,0,0.05,10,0)" xlink:href="#bb"/><use transform="matrix(0.05,0,0,0.05,20,0)" xlink:href="#bc"/></g><g id="aB"><use transform="matrix(0.05,0,0,0.05,0,0)" xlink:href="#bn"/><use transform="matrix(0.05,0,0,0.05,5,0)" xlink:href="#aU"/><use transform="matrix(0.05,0,0,0.05,8.95,0)" xlink:href="#ba"/><use transform="matrix(0.05,0,0,0.05,18.95,0)" xlink:href="#aT"/><use transform="matrix(0.05,0,0,0.05,28.950000000000003,0)" xlink:href="#bf"/></g><g id="aC"><use transform="matrix(0.05,0,0,0.05,0,0)" xlink:href="#aS"/><use transform="matrix(0.05,0,0,0.05,16.3,0)" xlink:href="#aT"/><use transform="matrix(0.05,0,0,0.05,26.3,0)" xlink:href="#aU"/><use transform="matrix(0.05,0,0,0.05,30.25,0)" xlink:href="#aV"/><use transform="matrix(0.05,0,0,0.05,39.25,0)" xlink:href="#aW"/><use transform="matrix(0.05,0,0,0.05,49.25,0)" xlink:href="#aX"/><use transform="matrix(0.05,0,0,0.05,55.2,0)" xlink:href="#bk"/><use transform="matrix(0.05,0,0,0.05,67.2,0)" xlink:href="#aW"/><use transform="matrix(0.05,0,0,0.05,77.2,0)" xlink:href="#be"/><use transform="matrix(0.05,0,0,0.05,87.2,0)" xlink:href="#bg"/><use transform="matrix(0.05,0,0,0.05,96.2,0)" xlink:href="#ba"/><use transform="matrix(0.05,0,0,0.05,106.2,0)" xlink:href="#aX"/><use transform="matrix(0.05,0,0,0.05,112.15,0)" xlink:href="#bx"/><use transform="matrix(0.05,0,0,0.05,118.10000000000001,0)" xlink:href="#by"/></g><g id="aD"><use transform="matrix(0.05,0,0,0.05,0,0)" xlink:href="#bd"/><use transform="matrix(0.05,0,0,0.05,3.95,0)" xlink:href="#be"/><use transform="matrix(0.05,0,0,0.05,13.949999999999998,0)" xlink:href="#bd"/><use transform="matrix(0.05,0,0,0.05,17.9,0)" xlink:href="#bf"/><use transform="matrix(0.05,0,0,0.05,22.9,0)" xlink:href="#bx"/><use transform="matrix(0.05,0,0,0.05,28.849999999999994,0)" xlink:href="#bC"/><use transform="matrix(0.05,0,0,0.05,42.849999999999994,0)" xlink:href="#bD"/><use transform="matrix(0.05,0,0,0.05,52.849999999999994,0)" xlink:href="#bD"/><use transform="matrix(0.05,0,0,0.05,62.849999999999994,0)" xlink:href="#bC"/><use transform="matrix(0.05,0,0,0.05,76.85,0)" xlink:href="#bl"/></g><g id="aE"><use transform="matrix(0.05,0,0,0.05,0,0)" xlink:href="#ba"/><use transform="matrix(0.05,0,0,0.05,10,0)" xlink:href="#aU"/><use transform="matrix(0.05,0,0,0.05,13.949999999999998,0)" xlink:href="#aU"/><use transform="matrix(0.05,0,0,0.05,17.9,0)" xlink:href="#ba"/><use transform="matrix(0.05,0,0,0.05,27.899999999999995,0)" xlink:href="#bB"/></g><g id="aF"><use transform="matrix(0.05,0,0,0.05,0,0)" xlink:href="#bd"/><use transform="matrix(0.05,0,0,0.05,3.95,0)" xlink:href="#bi"/><use transform="matrix(0.05,0,0,0.05,13.949999999999998,0)" xlink:href="#bB"/></g><g id="aG"><use transform="matrix(0.05,0,0,0.05,0,0)" xlink:href="#bC"/><use transform="matrix(0.05,0,0,0.05,14,0)" xlink:href="#aU"/><use transform="matrix(0.05,0,0,0.05,17.95,0)" xlink:href="#aU"/><use transform="matrix(0.05,0,0,0.05,21.9,0)" xlink:href="#ba"/><use transform="matrix(0.05,0,0,0.05,31.899999999999995,0)" xlink:href="#bv"/><use transform="matrix(0.05,0,0,0.05,44.85,0)" xlink:href="#aW"/><use transform="matrix(0.05,0,0,0.05,54.85,0)" xlink:href="#bK"/><use transform="matrix(0.05,0,0,0.05,63.85,0)" xlink:href="#bd"/><use transform="matrix(0.05,0,0,0.05,67.8,0)" xlink:href="#aZ"/><use transform="matrix(0.05,0,0,0.05,76.8,0)" xlink:href="#aW"/><use transform="matrix(0.05,0,0,0.05,86.8,0)" xlink:href="#bE"/><use transform="matrix(0.05,0,0,0.05,91.8,0)" xlink:href="#be"/><use transform="matrix(0.05,0,0,0.05,101.8,0)" xlink:href="#bi"/><use transform="matrix(0.05,0,0,0.05,111.80000000000001,0)" xlink:href="#aW"/><use transform="matrix(0.05,0,0,0.05,121.80000000000001,0)" xlink:href="#bA"/></g><g id="aH"><use transform="matrix(0.05,0,0,0.05,0,0)" xlink:href="#bf"/><use transform="matrix(0.05,0,0,0.05,5,0)" xlink:href="#bz"/><use transform="matrix(0.05,0,0,0.05,14,0)" xlink:href="#bm"/><use transform="matrix(0.05,0,0,0.05,24,0)" xlink:href="#aW"/><use transform="matrix(0.05,0,0,0.05,34,0)" xlink:href="#bB"/></g><g id="aI"><use transform="matrix(0.05,0,0,0.05,0,0)" xlink:href="#aT"/><use transform="matrix(0.05,0,0,0.05,10,0)" xlink:href="#bK"/><use transform="matrix(0.05,0,0,0.05,19,0)" xlink:href="#aW"/><use transform="matrix(0.05,0,0,0.05,29,0)" xlink:href="#aX"/><use transform="matrix(0.05,0,0,0.05,34.95,0)" xlink:href="#aT"/><use transform="matrix(0.05,0,0,0.05,44.95,0)" xlink:href="#bp"/><use transform="matrix(0.05,0,0,0.05,54.95,0)" xlink:href="#aW"/><use transform="matrix(0.05,0,0,0.05,64.95,0)" xlink:href="#bg"/><use transform="matrix(0.05,0,0,0.05,73.95,0)" xlink:href="#bB"/></g><g id="aJ"><use transform="matrix(0.05,0,0,0.05,0,0)" xlink:href="#aT"/><use transform="matrix(0.05,0,0,0.05,10,0)" xlink:href="#bB"/></g><g id="aK"><use transform="matrix(0.05,0,0,0.05,0,0)" xlink:href="#bn"/><use transform="matrix(0.05,0,0,0.05,5,0)" xlink:href="#aU"/><use transform="matrix(0.05,0,0,0.05,8.95,0)" xlink:href="#ba"/><use transform="matrix(0.05,0,0,0.05,18.95,0)" xlink:href="#aT"/><use transform="matrix(0.05,0,0,0.05,28.950000000000003,0)" xlink:href="#bf"/></g><g id="aL"><use transform="matrix(0.05,0,0,0.05,0,0)" xlink:href="#bt"/><use transform="matrix(0.05,0,0,0.05,10,0)" xlink:href="#by"/></g><g id="aM"><use transform="matrix(0.05,0,0,0.05,0,0)" xlink:href="#aX"/><use transform="matrix(0.05,0,0,0.05,5.95,0)" xlink:href="#aW"/><use transform="matrix(0.05,0,0,0.05,15.949999999999998,0)" xlink:href="#aT"/><use transform="matrix(0.05,0,0,0.05,25.950000000000003,0)" xlink:href="#bi"/><use transform="matrix(0.05,0,0,0.05,35.95,0)" xlink:href="#bk"/><use transform="matrix(0.05,0,0,0.05,47.95,0)" xlink:href="#aW"/><use transform="matrix(0.05,0,0,0.05,57.95,0)" xlink:href="#be"/><use transform="matrix(0.05,0,0,0.05,67.95,0)" xlink:href="#bg"/><use transform="matrix(0.05,0,0,0.05,76.95,0)" xlink:href="#ba"/><use transform="matrix(0.05,0,0,0.05,86.95,0)" xlink:href="#aX"/><use transform="matrix(0.05,0,0,0.05,92.9,0)" xlink:href="#bx"/><use transform="matrix(0.05,0,0,0.05,98.85000000000001,0)" xlink:href="#by"/><use transform="matrix(0.05,0,0,0.05,104.80000000000001,0)" xlink:href="#bc"/></g><g id="aN"><use transform="matrix(0.05,0,0,0.05,0,0)" xlink:href="#aU"/><use transform="matrix(0.05,0,0,0.05,3.95,0)" xlink:href="#aT"/><use transform="matrix(0.05,0,0,0.05,13.949999999999998,0)" xlink:href="#bg"/><use transform="matrix(0.05,0,0,0.05,22.95,0)" xlink:href="#bf"/><use transform="matrix(0.05,0,0,0.05,27.950000000000003,0)" xlink:href="#bx"/><use transform="matrix(0.05,0,0,0.05,33.9,0)" xlink:href="#by"/><use transform="matrix(0.05,0,0,0.05,39.85,0)" xlink:href="#bc"/></g><g id="aO"><use transform="matrix(0.05,0,0,0.05,0,0)" xlink:href="#aX"/><use transform="matrix(0.05,0,0,0.05,5.95,0)" xlink:href="#aW"/><use transform="matrix(0.05,0,0,0.05,15.949999999999998,0)" xlink:href="#aT"/><use transform="matrix(0.05,0,0,0.05,25.950000000000003,0)" xlink:href="#bi"/><use transform="matrix(0.05,0,0,0.05,35.95,0)" xlink:href="#bk"/><use transform="matrix(0.05,0,0,0.05,47.95,0)" xlink:href="#aW"/><use transform="matrix(0.05,0,0,0.05,57.95,0)" xlink:href="#be"/><use transform="matrix(0.05,0,0,0.05,67.95,0)" xlink:href="#bg"/><use transform="matrix(0.05,0,0,0.05,76.95,0)" xlink:href="#ba"/><use transform="matrix(0.05,0,0,0.05,86.95,0)" xlink:href="#aX"/><use transform="matrix(0.05,0,0,0.05,92.9,0)" xlink:href="#bH"/><use transform="matrix(0.05,0,0,0.05,105.85000000000001,0)" xlink:href="#aT"/><use transform="matrix(0.05,0,0,0.05,115.85000000000001,0)" xlink:href="#bj"/><use transform="matrix(0.05,0,0,0.05,128.8,0)" xlink:href="#bx"/><use transform="matrix(0.05,0,0,0.05,134.75,0)" xlink:href="#by"/><use transform="matrix(0.05,0,0,0.05,140.7,0)" xlink:href="#bc"/></g><g id="aP"><use transform="matrix(0.05,0,0,0.05,0,0)" xlink:href="#aU"/><use transform="matrix(0.05,0,0,0.05,3.95,0)" xlink:href="#aT"/><use transform="matrix(0.05,0,0,0.05,13.949999999999998,0)" xlink:href="#bg"/><use transform="matrix(0.05,0,0,0.05,22.95,0)" xlink:href="#bf"/><use transform="matrix(0.05,0,0,0.05,27.950000000000003,0)" xlink:href="#bH"/><use transform="matrix(0.05,0,0,0.05,40.9,0)" xlink:href="#aT"/><use transform="matrix(0.05,0,0,0.05,50.9,0)" xlink:href="#bj"/><use transform="matrix(0.05,0,0,0.05,63.85,0)" xlink:href="#bx"/><use transform="matrix(0.05,0,0,0.05,69.8,0)" xlink:href="#by"/><use transform="matrix(0.05,0,0,0.05,75.75,0)" xlink:href="#bc"/></g><g id="aQ"><use transform="matrix(0.05,0,0,0.05,0,0)" xlink:href="#bd"/><use transform="matrix(0.05,0,0,0.05,3.95,0)" xlink:href="#be"/><use transform="matrix(0.05,0,0,0.05,13.949999999999998,0)" xlink:href="#bf"/></g><path d="M101-251c68 0 85 55 85 127S166 4 100 4C33 4 14-52 14-124c0-73 17-127 87-127zm-1 229c47 0 54-49 54-102s-4-102-53-102c-51 0-55 48-55 102 0 53 5 102 54 102" id="bO"/><path d="M33 0v-38h34V0H33" id="bP"/><g id="aR"><use transform="matrix(0.05,0,0,0.05,0,0)" xlink:href="#bO"/><use transform="matrix(0.05,0,0,0.05,10,0)" xlink:href="#bP"/><use transform="matrix(0.05,0,0,0.05,15,0)" xlink:href="#bP"/><use transform="matrix(0.05,0,0,0.05,20,0)" xlink:href="#bl"/></g></defs></g></svg>